<?xml version="1.0" encoding="utf-8"?>
<!-- Generator: Adobe Illustrator 19.0.0, SVG Export Plug-In . SVG Version: 6.00 Build 0)  -->
<svg version="1.1" id="Layer_1" xmlns="http://www.w3.org/2000/svg" xmlns:xlink="http://www.w3.org/1999/xlink" x="0px" y="0px"
	 viewBox="0 0 1087.9 2182.2" style="enable-background:new 0 0 1087.9 2182.2;" xml:space="preserve">
<style type="text/css">
	.st0{fill:none;stroke:#000000;stroke-width:4;stroke-miterlimit:15;}
	.st1{fill:#E5E5E5;stroke:#1C1C1C;stroke-width:4;stroke-miterlimit:10;}
	.st2{opacity:0.77;}
	.st3{fill:none;stroke:#1C1C1C;stroke-width:10;stroke-miterlimit:10;}
	.st4{fill:none;}
	.st5{fill:#2D2D2D;}
	.st6{font-family:'MyriadPro-Regular';}
	.st7{font-size:125px;}
	.st8{font-size:70px;}
	.st9{fill:#DD1B65;}
	.st10{fill:#3DBF32;}
	.st11{fill:#EFEFEF;}
	.st12{font-size:30px;}
	.st13{fill:#1E1E1E;}
	.st14{fill:#EAEAEA;}
	.st15{fill:#FA5F64;}
	.st16{fill:#FA4E6C;}
	.st17{fill:#FB6861;}
	.st18{fill:#FA526B;}
	.st19{fill:#FA5A67;}
	.st20{fill:#FA4472;}
	.st21{fill:#FA4A6E;}
	.st22{fill:#F93B77;}
	.st23{fill:#FB745D;}
	.st24{fill:#FA4572;}
	.st25{fill:none;stroke:#E5E5E5;stroke-width:2;stroke-miterlimit:10;}
</style>
<path id="XMLID_26_" class="st0" d="M33.8,171c0-12.2,10.3-21.8,22.5-21.8 M1007.7,0.2H86.4C40.6,0.2,2.8,37.5,2.8,83.3V2099
	c0,45.8,37.8,83.3,83.6,83.3h921.3c45.8,0,83.1-37.5,83.1-83.3V83.3C1090.8,37.5,1053.5,0.2,1007.7,0.2z M1037.9,149.2
	c12.2,0,21.9,9.6,21.9,21.8"/>
<path id="XMLID_21_" class="st1" d="M1059.8,171v1880.4c0,12.2-9.8,21.8-21.9,21.8H56.3c-12.2,0-22.5-9.6-22.5-21.8V171
	c0-12.2,10.3-21.8,22.5-21.8h981.6C1050.1,149.2,1059.8,158.8,1059.8,171z"/>
<path id="XMLID_28_" d="M877.5,111.6H213.1c-1.5,0-2.7-1.2-2.7-2.7V94.4c0-1.5,1.2-2.7,2.7-2.7h664.4c1.5,0,2.7,1.2,2.7,2.7v14.6
	C880.2,110.4,879,111.6,877.5,111.6z"/>
<circle id="XMLID_29_" cx="545.3" cy="44.8" r="12.9"/>
<image style="overflow:visible;" width="2878" height="1616" id="XMLID_19_" xlink:href="derek-thomson-422319-unsplash.jpg"  transform="matrix(0.1639 0 0 0.1639 308.154 357.2195)">
</image>
<image style="overflow:visible;" width="5245" height="3497" id="XMLID_97_" xlink:href="anne-edgar-119384-unsplash.jpg"  transform="matrix(0.1088 0 0 0.1088 261.6259 466.346)">
</image>
<rect id="XMLID_25_" x="35.2" y="277.2" class="st2" width="1026" height="1458"/>
<rect id="XMLID_98_" x="208.1" y="669.2" class="st3" width="677.9" height="1010.8"/>
<image style="overflow:visible;" width="3666" height="5466" id="XMLID_96_" xlink:href="benjaminrobyn-jespersen-438346-unsplash.jpg"  transform="matrix(0.1849 0 0 0.1849 208.1115 669.1644)">
</image>
<rect id="XMLID_1_" x="362.1" y="1863.2" class="st4" width="370" height="146"/>
<text id="XMLID_2_" transform="matrix(1 0 0 1 405.8999 1951.9664)" class="st5 st6 st7">00:04</text>
<ellipse id="XMLID_3_" class="st2" cx="880.6" cy="1908.2" rx="91.3" ry="89"/>
<ellipse id="XMLID_4_" class="st2" cx="223.6" cy="1908.2" rx="91.3" ry="89"/>
<text id="XMLID_9_" transform="matrix(1 0 0 1 461.5109 1819.2174)" class="st5 st6 st8">13/50</text>
<path id="XMLID_17_" d="M1059.8,171v19.2H33.8V171c0-12.2,10.3-21.8,22.5-21.8h981.6C1050.1,149.2,1059.8,158.8,1059.8,171z"/>
<g id="XMLID_10_">
	<g id="XMLID_39_">
		<polygon id="XMLID_40_" class="st9" points="74.8,1179.2 174.3,1138.6 150.7,1179.2 174.3,1219.9 		"/>
	</g>
</g>
<g id="XMLID_11_">
	<g id="XMLID_42_">
		<path id="XMLID_43_" class="st10" d="M1009.5,1179.2c-28.4-10.5-63.6-28.5-85.5-47.6l17.2,47.6l-17.2,47.5
			C945.9,1207.7,981.1,1189.7,1009.5,1179.2z"/>
	</g>
</g>
<rect id="XMLID_12_" x="908.8" y="160.1" class="st4" width="174.7" height="53.5"/>
<text id="XMLID_13_" transform="matrix(1 0 0 1 962.2783 181.4122)" class="st11 st6 st12">20:28</text>
<path id="XMLID_16_" class="st11" d="M944.3,159.7h-16.3c-0.7,0-1.3,0.6-1.3,1.3v21.1c0,0.7,0.6,1.3,1.3,1.3h16.3
	c0.7,0,1.3-0.6,1.3-1.3V161C945.6,160.3,945,159.7,944.3,159.7z"/>
<rect id="XMLID_18_" x="932.3" y="156.7" class="st11" width="7.6" height="3.4"/>
<rect id="XMLID_20_" x="33.8" y="190.2" class="st13" width="1026" height="87"/>
<g id="XMLID_141_">
	<path id="XMLID_232_" class="st14" d="M89.8,202.1c5.6,0,11.2,0,16.8,0c0,0,0,0,0,0c1,0.2,1.7,0.6,2.3,1.4c0.8,1.2,1.6,2.4,2.4,3.7
		c0.1,0.1,0.2,0.2,0.3,0.2c5.5,0,10.9,0,16.4,0c0.4,0,0.8,0,1.1,0.1c2,0.3,3.7,1.3,5,2.9c1,1.3,1.5,2.8,1.5,4.5c0,13.3,0,26.6,0,40
		c0,2.3-0.9,4.1-2.6,5.6c-1.4,1.2-3.1,1.8-4.9,1.8c-20,0-39.9,0-59.9,0c-2,0-3.7-0.7-5.1-2.1c-1.1-1.1-1.9-2.4-2.2-4
		c-0.1-0.3-0.1-0.6-0.1-0.8c0-13.7,0-27.5,0-41.2c0,0,0-0.1,0-0.1c0.1-0.7,0.2-1.4,0.5-2c1.1-2.8,3.9-4.8,7.1-4.7
		c5.5,0,10.9,0,16.4,0c0.2,0,0.2-0.1,0.3-0.2c0.8-1.2,1.6-2.4,2.4-3.6c0.4-0.6,1-1.1,1.7-1.3C89.4,202.2,89.6,202.2,89.8,202.1z
		 M98.2,252.3c9.7,0,17.5-7.8,17.5-17.4c0-9.5-7.7-17.4-17.3-17.5c-9.7-0.1-17.4,7.7-17.6,17C80.5,244.4,88.5,252.3,98.2,252.3z
		 M68.2,217.8c0,2.3,1.9,4.2,4.2,4.2c2.3,0,4.2-1.9,4.2-4.2c0-2.3-1.9-4.2-4.2-4.2C70.1,213.6,68.2,215.5,68.2,217.8z"/>
	<path id="XMLID_137_" class="st15" d="M106.9,246.2c0,0-0.1,0.1-0.1,0.1c-0.1,0-0.1,0-0.1,0.1c0,0,0,0,0,0c-0.1,0-0.2,0.1-0.2,0.2
		c0,0,0,0,0,0c-0.2,0-0.2,0.1-0.3,0.2c0,0,0,0,0,0c-0.1,0-0.2,0-0.2,0.1c0,0,0,0,0,0c-0.2,0-0.3,0.1-0.4,0.2c0,0,0,0,0,0.1l0,0
		c0,0,0,0,0,0c-0.1,0-0.1,0-0.1,0.1c0,0-0.1,0-0.1,0.1c-0.1,0-0.1,0-0.2,0c-0.1-0.1,0-0.2,0-0.3c0-0.1,0-0.2-0.1-0.3
		c-0.1-0.1-0.1-0.2-0.1-0.4c0-0.1,0-0.1-0.1-0.2c0,0-0.1,0-0.1-0.1c0-0.2-0.2-0.4-0.3-0.7c0-0.1-0.1-0.2-0.2-0.3
		c-0.1,0-0.1-0.1-0.1-0.2c0-0.2-0.1-0.3-0.2-0.4c-0.1-0.1-0.1-0.2-0.1-0.3c0-0.2,0-0.3-0.2-0.4c-0.1,0-0.2-0.1-0.2-0.2
		c0-0.1,0-0.1-0.1-0.1c-0.1-0.1-0.2-0.3-0.4-0.3c-0.1,0-0.1-0.1-0.2-0.2c0-0.1-0.1-0.2-0.3-0.2c-0.2,0-0.3-0.1-0.3-0.3
		c0-0.2-0.1-0.3-0.3-0.2c0,0-0.1,0-0.1,0c-0.2-0.1-0.3-0.2-0.4-0.4c-0.1-0.1-0.1-0.2-0.3-0.1c-0.2,0-0.3,0-0.5-0.1
		c-0.3-0.2-0.6-0.3-1-0.4c-0.3-0.1-0.6-0.1-0.8-0.1c-0.5,0-1,0-1.5,0c-0.1,0-0.1,0-0.2,0.1c-0.1,0.1-0.2,0.1-0.4,0.1
		c-0.1,0-0.1,0-0.1,0c-0.1,0.1-0.3,0.1-0.5,0.2c-0.1,0-0.1,0-0.2,0.1c-0.2,0.2-0.4,0.2-0.7,0.2c-0.1,0-0.2,0-0.3,0.2
		c-0.1,0.3-0.4,0.5-0.7,0.5c-0.1,0-0.2,0-0.2,0.1c-0.1,0.2-0.3,0.4-0.5,0.5c-0.1,0.1-0.3,0.2-0.4,0.3c-0.2,0.3-0.6,0.4-0.7,0.8
		c0,0,0,0,0,0c-0.1,0.1-0.2,0.3-0.2,0.5c0,0.1-0.1,0.1-0.2,0.2c-0.1,0-0.2,0.1-0.2,0.2c0,0.2-0.1,0.3-0.2,0.5
		c-0.1,0.2-0.2,0.4-0.2,0.6c0,0.1,0,0.1-0.1,0.2c-0.1,0.1-0.1,0.2-0.1,0.3c0,0.2-0.1,0.3-0.2,0.3c-0.1,0-0.1,0.1-0.1,0.2
		c0,0.2,0,0.3,0,0.5c0,0.1,0,0.1-0.1,0.2c0,0-0.1,0-0.1,0c0-0.2-0.1-0.1-0.2-0.1c-0.1,0-0.2-0.2-0.3-0.1c0,0,0,0,0,0
		c0-0.2-0.2-0.2-0.3-0.3c-0.2-0.1-0.3-0.3-0.5-0.3c0,0,0,0,0,0c0-0.1,0-0.1-0.1-0.1c0,0,0-0.1,0-0.1c-0.3-0.2-0.6-0.6-0.9-0.8
		c-0.1-0.1-0.1-0.2-0.3-0.2c0,0,0,0,0,0c0,0,0-0.1,0-0.1c0,0,0-0.1,0-0.1c-0.1-0.3,0-0.3,0.3-0.1c0.1,0,0.1-0.1,0-0.1
		c-0.2,0-0.1,0.1-0.1,0.2c0,0.1,0,0.2,0.1,0.2c0.1,0,0.1-0.1,0-0.3c-0.1-0.2-0.1-0.4-0.1-0.6c0-0.1,0-0.2,0.1-0.2
		c0.1,0,0.2,0,0.2-0.1c0-0.3,0.1-0.5,0.1-0.7c0-0.2,0.1-0.3,0.2-0.3c0.2,0,0.3-0.2,0.3-0.3c0-0.3,0.3-0.4,0.2-0.7c0-0.1,0.1,0,0.1,0
		c0.1,0,0.2-0.1,0.2-0.2c0-0.2,0.2-0.5,0.4-0.6c0.1,0,0.2-0.1,0.2-0.2c0-0.2,0.1-0.3,0.3-0.3c0.2,0,0.2-0.1,0.2-0.3
		c0-0.1,0-0.1,0.1-0.2c0.1-0.1,0.2-0.2,0.4-0.2c0.1,0,0.1,0,0.1-0.1c0-0.3,0.1-0.3,0.4-0.3c0.1,0,0.2,0,0.2-0.1
		c0-0.2,0.2-0.3,0.3-0.5c0.1-0.1,0.1-0.1,0.2,0c0.1,0.1,0.2,0,0.2-0.1c0-0.1,0-0.1-0.1-0.2c0,0-0.1,0-0.1-0.1c0-0.1,0.1-0.1,0.1-0.1
		c0.1,0,0.1,0,0.2,0c0.1,0,0.2,0,0.2,0c0.1-0.2,0.3-0.2,0.4-0.2c0.1,0,0.2,0,0.2-0.1c0-0.2,0.1-0.2,0.3-0.2c0.1,0,0.3,0,0.3-0.1
		c0-0.1,0.1-0.1,0.2-0.1c0.1,0,0.3,0,0.3-0.1c0.1-0.1,0.1-0.1,0.2-0.1c0.2,0,0.3,0,0.4-0.2c0,0,0.1,0,0.1,0c0.5,0,1,0,1.5,0
		c0.5,0,1.1,0,1.6,0c0.4,0,0.7,0,1.1,0c0,0,0.1,0,0.1,0c0,0.2,0.2,0.3,0.4,0.3c0.3,0,0.5,0.2,0.8,0.1c0,0,0,0,0.1,0
		c0.1,0.2,0.3,0.2,0.5,0.2c0.1,0,0.2,0,0.1,0.1c0,0.3,0.1,0.3,0.3,0.3c0.1,0,0.2,0.1,0.2,0.2c0,0.2,0.2,0.2,0.3,0.2
		c0.1,0,0.2,0,0.3,0.1c0.1,0.2,0.2,0.2,0.3,0.1c0.1,0,0.2,0,0.3,0c0.1,0,0.1,0.1,0.1,0.1c-0.1,0.1-0.1,0.1-0.1,0.2
		c0,0.1,0.1,0.1,0.2,0.1c0.1,0,0.4,0.3,0.4,0.4c0,0.2,0.1,0.2,0.2,0.2c0.2,0,0.4,0.2,0.4,0.4c0,0.1,0,0.2,0.2,0.2
		c0.2,0,0.4,0.1,0.4,0.4c0,0.1,0.1,0.2,0.2,0.2c0.2-0.1,0.1,0,0.2,0.1c0,0.1-0.1,0.3,0.1,0.3c0.2,0,0.2,0.1,0.2,0.3
		c0,0.1,0,0.3,0.2,0.3c0.2,0,0.3,0.2,0.3,0.4c0,0.1,0,0.2,0.1,0.2c0.3,0,0.2,0.2,0.2,0.3c0,0.1,0,0.2,0.1,0.2c0.2,0,0.2,0.2,0.2,0.3
		c0,0.1,0,0.1,0,0.2c0.2,0.2,0,0.5,0.2,0.7c0,0,0,0.1,0,0.2c-0.1,0-0.1,0-0.1-0.1c0,0,0-0.1-0.1-0.1c0,0-0.1-0.1-0.1,0
		c0,0.1,0,0.3,0.2,0.3c0.1,0,0.1,0.1,0.1,0.1c0,0,0,0.1,0,0.1c0,0,0,0,0,0c-0.1,0-0.1,0-0.1,0.1c0,0,0,0,0,0c0,0-0.1,0-0.1,0.1
		c0,0.1-0.1,0.1-0.2,0.2C107,246.1,106.9,246.1,106.9,246.2z"/>
	<path id="XMLID_228_" class="st16" d="M85.4,239.6c0,0,0-0.1,0-0.1c0.1-0.1,0-0.2,0-0.2c-0.1-0.4-0.1-0.8-0.1-1.2
		c0.1,0,0.1,0,0.1,0.1c0,0.1,0,0.2,0.1,0.3c0.1-0.1,0.2-0.3,0.2-0.4c0-0.1,0.1-0.2,0.3-0.3c0.1-0.1,0.3-0.2,0.3-0.4
		c0-0.1,0.1-0.2,0.2-0.3c0.4-0.4,0.8-0.8,1.2-1.2c0.4-0.4,0.8-0.8,1.2-1.1c0.2-0.2,0.3-0.3,0.4-0.5c0-0.1,0.1-0.1,0.1-0.1
		c0.1,0,0.2,0,0.3,0c0.1,0,0.1,0,0.2-0.1c0-0.3,0.2-0.3,0.5-0.3c0.1,0,0.1,0,0.2-0.1c0-0.2,0.2-0.3,0.4-0.3c0.1,0,0.1,0,0.1-0.1
		c0-0.1,0.1-0.3,0.2-0.3c0.3,0,0.5-0.1,0.8-0.1c0.1,0,0.1,0,0.1-0.1c0-0.3,0.2-0.4,0.4-0.4c0.1,0,0.2,0,0.3-0.1
		c0.1-0.1,0.2-0.1,0.3-0.1c0.1,0,0.1,0,0.2,0c0.2-0.2,0.4-0.2,0.7-0.2c0.1,0,0.2-0.1,0.2-0.1c0-0.1,0.1-0.1,0.2-0.1
		c0.2,0,0.4-0.1,0.6-0.2c0.1,0,0.2,0.1,0.3,0c0.2-0.2,0.5-0.1,0.8-0.1c0.1,0,0.3,0,0.4,0c0.3-0.2,0.6-0.2,0.9-0.2c0.6,0,1.3,0,2,0
		c0.1,0,0.1,0,0.2,0c0.2,0.2,0.4,0.2,0.7,0.1c0.2,0,0.4-0.1,0.5,0.1c0.1,0.1,0.2,0.2,0.4,0.2c0.3,0,0.6-0.1,0.9,0.2c0,0,0.1,0,0.1,0
		c0.2,0,0.5,0,0.7,0c0.1,0,0.2,0,0.2,0.1c0.1,0.2,0.3,0.3,0.5,0.2c0.1,0,0.1,0,0.1,0c0.1,0.2,0.2,0.2,0.4,0.1c0.1,0,0.2,0,0.3,0.1
		c0,0.1,0.1,0.1,0.2,0.1c0.1,0,0.2,0,0.2,0.1c0,0.3,0.3,0.3,0.5,0.3c0.1,0,0.2,0,0.3,0.2c0.1,0.2,0.4,0.3,0.6,0.3
		c0.2,0,0.5,0.2,0.5,0.4c0,0.2,0.1,0.2,0.3,0.2c0.1,0,0.2,0,0.3,0.1c0.1,0.2,0.3,0.3,0.5,0.5c0.1,0.2,0.2,0.3,0.4,0.4
		c0.1,0.1,0.2,0.2,0.3,0.3c0,0.1,0.1,0.2,0.2,0.3c0.2,0.1,0.3,0.2,0.4,0.4c0,0.1,0.1,0.1,0.2,0.2c0.2,0.1,0.3,0.2,0.4,0.4
		c0,0.1,0.1,0.2,0.2,0.3c0.3,0.2,0.4,0.5,0.7,0.8c0.1,0,0.1,0.1,0.1,0.2c0,0.2,0.1,0.2,0.2,0.4c0.1,0.2,0.2,0.1,0.3,0.1
		c0,0.2,0,0.4,0,0.5c-0.1,0-0.1,0.1,0,0.1c-0.1,0.2-0.1,0.3-0.1,0.5c-0.1,0.4-0.2,0.9-0.3,1.3c-0.2,0-0.3,0.2-0.6,0.1
		c-0.3-0.1-0.3,0-0.3-0.4c0-0.1,0-0.2-0.1-0.2c-0.2,0-0.2-0.2-0.2-0.3c0-0.3,0-0.3-0.3-0.3c-0.2,0-0.2-0.1-0.2-0.2
		c0-0.2-0.1-0.4-0.3-0.5c-0.2-0.1-0.2-0.3,0-0.4c0.1-0.1,0.1-0.1,0-0.2c-0.1-0.1-0.1-0.1-0.2,0c0,0.1-0.1,0.1-0.1,0.1
		c-0.1,0-0.1-0.1-0.1-0.2c0-0.1,0-0.2,0-0.3c0-0.2-0.2-0.3-0.4-0.3c-0.1,0-0.4-0.2-0.4-0.3c0-0.3-0.1-0.4-0.4-0.4
		c-0.1,0-0.2,0-0.2,0c-0.1,0-0.2-0.1,0-0.2c0.1-0.1,0.1-0.1,0-0.2c-0.1-0.1-0.1,0-0.2,0c-0.1,0.1-0.2,0.1-0.3,0
		c-0.1-0.1-0.2-0.2-0.2-0.3c-0.1-0.1-0.2-0.2-0.3-0.2c-0.1,0-0.2,0-0.2-0.1c-0.1-0.2-0.1-0.4-0.1-0.5c0-0.2-0.1-0.2-0.2-0.2
		c-0.3,0-0.5-0.2-0.8-0.1c0,0-0.1,0-0.1,0c-0.1-0.1-0.3-0.1-0.4-0.1c-0.1,0-0.2,0-0.2-0.2c0-0.2-0.1-0.3-0.3-0.2
		c-0.1,0-0.2,0-0.3-0.1c-0.1-0.1-0.3-0.1-0.4-0.1c-0.2,0-0.3,0-0.3-0.2c0-0.1-0.1-0.2-0.2-0.2c-0.2,0-0.5,0-0.7,0
		c-0.2,0-0.3,0-0.3-0.3c0-0.1,0-0.2-0.1-0.2c-0.4,0-0.8,0-1.2,0.2c-0.2,0.1-0.4,0-0.5-0.2c0-0.1-0.1-0.1-0.2-0.1c-0.7,0-1.4,0-2.1,0
		c-0.1,0-0.2,0-0.2,0.1c0,0.2-0.2,0.2-0.3,0.2c-0.1,0-0.2,0-0.3,0c-0.2,0-0.3,0-0.5,0c-0.4-0.1-0.7-0.2-1.1-0.2
		c-0.1,0-0.2,0.1-0.1,0.2c0.1,0.1,0,0.2-0.1,0.2c-0.1,0.1-0.3,0.1-0.4,0.1c-0.1,0-0.2,0-0.2,0.1c-0.1,0.2-0.3,0.2-0.5,0.1
		c-0.2-0.1-0.4-0.1-0.5-0.1c-0.1,0-0.1,0.1-0.1,0.1c0,0.1,0,0.2,0,0.3c0,0.3-0.3,0.4-0.5,0.3c-0.1-0.1-0.3-0.1-0.5-0.1
		c-0.1,0-0.2,0-0.2,0.1c-0.1,0.1,0.1,0.1,0.1,0.2c-0.1,0.1-0.1,0.1-0.1,0.2c0,0.3-0.1,0.3-0.4,0.3c-0.1,0-0.2,0-0.2,0
		c-0.1,0.2-0.2,0.1-0.3,0.1c-0.1,0-0.1,0-0.2,0c-0.1,0.1-0.3,0.1-0.4,0.1c-0.1,0-0.2,0-0.2,0.1c0,0.2-0.1,0.3-0.1,0.4
		c0,0.1,0,0.1-0.1,0.2c-0.2,0.2-0.5,0.4-0.7,0.7c-0.3,0.3-0.6,0.7-1,1c0,0-0.1,0.1-0.1,0.1c0,0.2-0.1,0.3-0.3,0.4
		c-0.1,0.1-0.1,0.2-0.2,0.2c-0.1,0,0-0.2-0.1-0.3c0,0,0-0.1,0-0.1c0,0,0-0.1-0.1-0.1c-0.1,0-0.1,0.1-0.1,0.1c0,0.2,0,0.4-0.2,0.6
		c0,0.1,0,0.2,0,0.3c0,0.1,0,0.1-0.1,0.2c-0.1,0-0.1,0-0.1-0.1c0-0.1-0.1-0.1-0.1-0.1c-0.1,0-0.1,0.1-0.1,0.2c0,0.1,0,0.1,0.1,0.1
		c0.1,0,0.2,0.1,0.2,0.3c0,0.1-0.1,0.2-0.2,0.2c-0.3,0-0.3,0.2-0.3,0.4c0,0.1,0,0.2-0.1,0.2c0,0-0.1,0.1-0.1,0
		c-0.2-0.1-0.2,0.1-0.3,0.2c0,0.1,0,0.2-0.1,0.2c0-0.1,0-0.2,0-0.2c0,0,0-0.1-0.1-0.1c0-0.3-0.2-0.5-0.2-0.8c0,0,0-0.1-0.1-0.1
		C85.5,239.9,85.5,239.7,85.4,239.6z M85.5,239.2c0.1-0.1,0.1-0.2,0.1-0.3c0,0,0-0.1-0.1-0.1c0,0-0.1,0-0.1,0.1
		C85.5,238.9,85.5,239,85.5,239.2z"/>
	<path id="XMLID_134_" class="st17" d="M91.1,247.7c0-0.1,0.1-0.1,0.1-0.2c-0.1-0.2,0-0.3,0-0.5c0-0.1,0.1-0.1,0.1-0.2
		c0.2,0,0.2-0.1,0.2-0.3c0-0.1,0-0.2,0.1-0.3c0.1,0,0.1-0.1,0.1-0.2c0-0.2,0.1-0.4,0.2-0.6c0.1-0.2,0.2-0.3,0.2-0.5
		c0-0.1,0.1-0.1,0.2-0.2c0.1,0,0.2-0.1,0.2-0.2c0-0.2,0.1-0.3,0.2-0.5c0,0,0,0,0,0c0.1-0.4,0.5-0.5,0.7-0.8c0.1-0.2,0.2-0.2,0.4-0.3
		c0.2-0.1,0.4-0.3,0.5-0.5c0-0.1,0.1-0.1,0.2-0.1c0.3,0,0.6-0.2,0.7-0.5c0.1-0.1,0.2-0.2,0.3-0.2c0.3,0.1,0.5,0.1,0.7-0.2
		c0,0,0.1-0.1,0.2-0.1c0.2,0,0.3,0,0.5-0.2c0,0,0.1,0,0.1,0c0.1,0,0.3,0,0.4-0.1c0,0,0.1-0.1,0.2-0.1c0.5,0,1,0,1.5,0
		c0.3,0,0.6,0,0.8,0.1c0.3,0.1,0.7,0.2,1,0.4c0.1,0.1,0.3,0.1,0.5,0.1c0.1,0,0.2,0,0.3,0.1c0.1,0.2,0.3,0.3,0.4,0.4c0,0,0.1,0,0.1,0
		c0.2-0.1,0.3,0.1,0.3,0.2c0,0.2,0.2,0.3,0.3,0.3c0.2,0,0.2,0.1,0.3,0.2c0,0.1,0.1,0.2,0.2,0.2c0.2,0.1,0.3,0.2,0.4,0.3
		c0,0,0.1,0.1,0.1,0.1c0,0.1,0.1,0.2,0.2,0.2c0.2,0,0.2,0.2,0.2,0.4c0,0.1,0,0.2,0.1,0.3c0.1,0.1,0.2,0.2,0.2,0.4
		c0,0.1,0,0.1,0.1,0.2c0.1,0.1,0.2,0.2,0.2,0.3c0,0.2,0.2,0.4,0.3,0.7c0,0,0,0.1,0.1,0.1c0.1,0,0.1,0.1,0.1,0.2c0,0.1,0,0.3,0.1,0.4
		c0.1,0.1,0.1,0.2,0.1,0.3c0,0.1,0,0.2,0,0.3c0,0.1-0.1,0.1-0.1,0.2l0,0c0,0,0,0,0,0c-0.1,0-0.2,0-0.2,0.1c0,0,0,0-0.1,0
		c-0.1,0-0.1,0-0.1,0.1c0,0,0,0-0.1,0c-0.1,0-0.1,0-0.1,0.1c0,0-0.1,0-0.1,0c-0.1,0-0.3,0.1-0.4,0.2l0,0c0,0,0,0,0,0
		c-0.1,0-0.2,0-0.2,0.1l0,0c0,0,0,0,0,0c-0.1,0-0.2,0-0.2,0.1c0,0,0,0-0.1,0c-0.1,0-0.2,0-0.2,0.1l0,0c0,0,0,0,0,0c0,0-0.1,0-0.1,0
		c-0.2,0.1-0.5,0.2-0.7,0.3c-0.1,0-0.2,0.1-0.2,0c-0.1-0.1-0.1-0.1-0.2,0c0,0.1-0.1,0.1-0.1,0.1c-0.1,0-0.1-0.1-0.1-0.1
		c0-0.1,0-0.1-0.1-0.2c-0.1,0-0.1-0.1-0.1-0.2c0-0.1,0.1-0.3,0-0.4c-0.1-0.1-0.1-0.2-0.1-0.4c0-0.1,0-0.3-0.1-0.3
		c-0.1,0-0.2-0.1-0.1-0.2c0-0.2-0.1-0.3-0.2-0.4c-0.2-0.3-0.5-0.5-0.8-0.8c-0.2-0.2-0.3-0.4-0.6-0.4c0,0,0,0,0,0
		c-0.2-0.2-0.5-0.1-0.8-0.3c-0.3-0.1-0.6,0-0.9,0c-0.4,0-0.7,0.1-1,0.1c-0.2,0-0.3,0-0.3,0.2c0,0.1-0.1,0.1-0.1,0.1
		c-0.3,0.3-0.6,0.6-0.9,0.9c0,0,0,0-0.1,0.1c-0.2,0-0.2,0.2-0.2,0.3c0,0.2-0.1,0.2-0.2,0.3c-0.1,0-0.1,0.1-0.1,0.2
		c0,0.1,0,0.2-0.1,0.3c-0.1,0-0.1,0.1-0.1,0.2c0,0.1,0,0.2,0,0.4c0,0.1,0,0.1-0.1,0.2c-0.1,0-0.1,0-0.2,0c-0.1,0-0.1,0,0,0.1
		c0.1,0.1,0,0.1-0.1,0.1c-0.1,0-0.2,0-0.2-0.1c0,0-0.1,0-0.1,0c-0.1,0-0.1,0-0.2-0.1c-0.1,0-0.2-0.2-0.3-0.1c0,0,0,0-0.1,0
		c-0.1-0.1-0.2-0.1-0.4-0.1c0,0-0.1,0-0.1,0c0,0,0-0.1-0.1,0c0,0-0.1,0-0.1,0c0-0.1-0.1-0.1-0.2-0.1c-0.1,0-0.1,0-0.2-0.1
		c0-0.1,0-0.1-0.1,0c-0.1,0-0.1,0-0.1-0.1c-0.2-0.2-0.4-0.2-0.6-0.4C91.2,247.8,91.1,247.8,91.1,247.7z"/>
	<path id="XMLID_133_" class="st18" d="M85.9,241.3c0.1,0,0.1-0.1,0.1-0.2c0.1-0.1,0.1-0.3,0.3-0.2c0.1,0,0.1,0,0.1,0
		c0.1-0.1,0.1-0.1,0.1-0.2c0-0.2,0-0.4,0.3-0.4c0.1,0,0.2-0.1,0.2-0.2c0-0.1-0.1-0.2-0.2-0.3c-0.1,0-0.1,0-0.1-0.1
		c0-0.1,0-0.1,0.1-0.2c0.1,0,0.1,0,0.1,0.1c0,0.1,0.1,0.1,0.1,0.1c0.1,0,0.1-0.1,0.1-0.2c0-0.1,0-0.2,0-0.3c0.2-0.2,0.2-0.4,0.2-0.6
		c0,0,0-0.1,0.1-0.1c0.1,0,0.1,0,0.1,0.1c0,0,0,0.1,0,0.1c0,0.1-0.1,0.2,0.1,0.3c0.1,0,0.1-0.1,0.2-0.2c0.1-0.1,0.2-0.2,0.3-0.4
		c0,0,0-0.1,0.1-0.1c0.4-0.3,0.7-0.6,1-1c0.2-0.2,0.5-0.5,0.7-0.7c0,0,0.1-0.1,0.1-0.2c0-0.1,0.1-0.3,0.1-0.4c0-0.1,0.1-0.1,0.2-0.1
		c0.2,0,0.3,0,0.4-0.1c0,0,0.1,0,0.2,0c0.1,0,0.3,0,0.3-0.1c0-0.1,0.1,0,0.2,0c0.3,0,0.4-0.1,0.4-0.3c0-0.1,0.1-0.2,0.1-0.2
		c0-0.1-0.2-0.1-0.1-0.2c0-0.1,0.1-0.1,0.2-0.1c0.2,0,0.3,0,0.5,0.1c0.2,0.2,0.5,0,0.5-0.3c0-0.1,0.1-0.2,0-0.3c0-0.1,0-0.1,0.1-0.1
		c0.2,0,0.4,0,0.5,0.1c0.2,0.1,0.4,0.1,0.5-0.1c0.1-0.1,0.1-0.1,0.2-0.1c0.1,0,0.3,0,0.4-0.1c0.1-0.1,0.1-0.1,0.1-0.2
		c-0.1-0.1,0-0.2,0.1-0.2c0.4,0,0.7,0,1.1,0.2c0.2,0.1,0.3,0,0.5,0c0.1,0,0.2,0,0.3,0c0.2,0,0.3,0,0.3-0.2c0-0.1,0.1-0.1,0.2-0.1
		c0.7,0,1.4,0,2.1,0c0.1,0,0.2,0,0.2,0.1c0.1,0.2,0.2,0.3,0.5,0.2c0.4-0.1,0.8-0.2,1.2-0.2c0.1,0,0.1,0.1,0.1,0.2
		c0,0.2,0.1,0.3,0.3,0.3c0.2,0,0.5,0,0.7,0c0.1,0,0.2,0.1,0.2,0.2c0,0.2,0.1,0.2,0.3,0.2c0.2,0,0.3,0,0.4,0.1
		c0.1,0.1,0.2,0.1,0.3,0.1c0.2,0,0.3,0.1,0.3,0.2c0,0.2,0.1,0.2,0.2,0.2c0.2,0,0.3,0,0.4,0.1c0,0,0.1,0,0.1,0
		c0.3-0.1,0.5,0.1,0.8,0.1c0.1,0,0.2,0,0.2,0.2c0,0.2,0,0.4,0.1,0.5c0.1,0.1,0.2,0.1,0.2,0.1c0.1,0,0.2,0,0.3,0.2
		c0,0.1,0.1,0.2,0.2,0.3c0.1,0.1,0.2,0.1,0.3,0c0.1-0.1,0.1-0.1,0.2,0c0.1,0.1,0.1,0.2,0,0.2c-0.1,0.1-0.1,0.1,0,0.2
		c0.1,0,0.2,0,0.2,0c0.3,0,0.4,0.1,0.4,0.4c0,0.1,0.2,0.4,0.4,0.3c0.2,0,0.4,0.1,0.4,0.3c0,0.1,0,0.2,0,0.3c0,0.1,0,0.1,0.1,0.2
		c0.1,0,0.1,0,0.1-0.1c0.1-0.1,0.1-0.1,0.2,0c0.1,0.1,0,0.1,0,0.2c-0.1,0.1-0.1,0.3,0,0.4c0.2,0.1,0.3,0.3,0.3,0.5
		c0,0.1,0.1,0.2,0.2,0.2c0.3,0,0.3,0,0.3,0.3c0,0.2,0,0.3,0.2,0.3c0.1,0,0.1,0.1,0.1,0.2c0,0.3,0,0.3,0.3,0.4
		c0.2,0.1,0.4-0.1,0.6-0.1c-0.1,0.3-0.2,0.5-0.3,0.8c-0.1,0.2-0.2,0.3-0.1,0.5c0,0,0,0,0,0c-0.1,0-0.1,0.1-0.1,0.1
		c-0.1,0.2-0.2,0.4-0.3,0.6c0,0.1-0.1,0.2-0.1,0.3c0,0,0,0,0,0c-0.1,0-0.1,0.1-0.1,0.1c0,0,0,0,0,0c-0.2,0-0.2,0.2-0.2,0.3
		c-0.2-0.1-0.2-0.4-0.3-0.6c0-0.1,0-0.1-0.1-0.1c-0.1,0-0.2-0.1-0.2-0.3c0-0.1,0-0.2-0.1-0.3c-0.1-0.1-0.1-0.1-0.1-0.2
		c0-0.2-0.1-0.4-0.3-0.4c-0.2,0-0.3-0.1-0.3-0.3c0-0.2,0-0.3-0.3-0.3c-0.3,0-0.3,0-0.4-0.4c0,0,0,0,0-0.1c0-0.1,0-0.2,0.1-0.2
		c0.1,0,0.1-0.1,0-0.1c0,0-0.1-0.1-0.1-0.1c-0.3-0.1-0.4-0.4-0.6-0.6c-0.2-0.4-0.5-0.6-0.8-0.9c-0.3-0.2-0.6-0.3-0.8-0.7
		c-0.1-0.1-0.2-0.2-0.2,0c0,0.1,0,0.1-0.1,0.1c-0.3,0.1-0.5-0.1-0.5-0.4c0,0,0-0.1,0-0.1c0-0.3-0.2-0.4-0.4-0.4
		c-0.1,0-0.2,0-0.2-0.1c-0.1-0.3-0.3-0.4-0.6-0.3c-0.1,0-0.2,0-0.2,0c-0.4,0-0.4,0-0.4-0.4c0-0.1,0-0.3-0.1-0.3
		c-0.2,0-0.4-0.1-0.6-0.1c-0.1,0-0.3,0-0.4,0c-0.2,0.1-0.3,0-0.5,0c-0.1,0-0.2-0.1-0.2-0.2c0-0.2-0.1-0.2-0.2-0.2
		c-0.1,0-0.3,0-0.3-0.1c-0.1-0.1-0.2-0.1-0.3-0.1c-1,0-2.1,0-3.1,0c-0.1,0-0.1,0-0.2,0c-0.1,0.1-0.2,0.1-0.3,0.1
		c-0.2,0-0.3,0.1-0.3,0.3c0,0.1-0.1,0.1-0.2,0.2c-0.2,0-0.4-0.1-0.6-0.1c-0.2,0-0.4,0.1-0.6,0.1c-0.4,0-0.4,0-0.4,0.4
		c0,0,0,0.1,0,0.1c0,0.1,0,0.1-0.1,0.1c-0.2,0-0.4,0-0.5-0.1c-0.2-0.1-0.4,0-0.5,0.2c0,0.1,0,0.1,0,0.2c0,0.1,0,0.2-0.2,0.2
		c-0.1,0-0.3,0.1-0.4,0c-0.1-0.2-0.2-0.1-0.3,0c0,0-0.1,0.1-0.1,0.1c-0.1,0-0.2,0.1-0.2,0.2c0,0.1-0.1,0.2-0.3,0.2
		c-0.1,0-0.2,0-0.2,0c0,0-0.1,0-0.1,0.1c0.1,0.2-0.1,0.3-0.1,0.5c0,0.1,0,0.2-0.2,0.2c-0.4,0-0.4,0.1-0.4,0.4c0,0.2-0.1,0.2-0.2,0.2
		c-0.3,0-0.4,0.1-0.4,0.4c0,0,0,0.1,0,0.1c0,0.1-0.1,0.2-0.2,0.2c-0.1,0-0.1,0-0.2,0c-0.3,0.1-0.3,0.1-0.3,0.4c0,0.1,0,0.2-0.1,0.2
		c-0.3,0-0.4,0.1-0.5,0.3c0,0,0,0-0.1,0.1c-0.1,0.1-0.2,0.2-0.3,0.3c0,0.1-0.1,0.2-0.2,0.1c-0.1-0.1-0.1,0-0.1,0.1
		c0,0.1,0,0.2-0.1,0.3c-0.1,0.1-0.1,0.2-0.1,0.4c0,0.1,0,0.2-0.1,0.2c-0.2,0.1-0.3,0.2-0.3,0.4c0,0.1,0,0.2-0.1,0.3
		c-0.1,0.1-0.1,0.3,0,0.5c0,0,0.1,0.1,0.1,0.1c-0.1,0.1-0.1,0-0.1-0.1c0-0.1-0.1-0.1-0.1-0.1c-0.1,0-0.1,0.1,0,0.2
		c0,0,0.1,0.1,0,0.1c-0.1-0.1-0.2-0.1-0.3-0.1c0,0,0-0.1,0-0.1c0.1-0.1,0-0.1-0.1-0.2c-0.1,0-0.1-0.1-0.1-0.1
		C86.3,242.6,86.1,241.9,85.9,241.3z"/>
	<path id="XMLID_132_" class="st19" d="M86.8,243.5c0.1,0,0.2,0,0.3,0.1c0.1-0.1,0-0.1,0-0.1c0-0.1,0-0.1,0-0.2c0.1,0,0.1,0,0.1,0.1
		c0,0.1,0.1,0.1,0.1,0.1c0.1-0.1,0-0.1-0.1-0.1c-0.1-0.1-0.1-0.3,0-0.5c0.1-0.1,0.1-0.2,0.1-0.3c0-0.2,0.1-0.4,0.3-0.4
		c0.1,0,0.1-0.1,0.1-0.2c0-0.1,0-0.3,0.1-0.4c0.1-0.1,0-0.2,0.1-0.3c0,0,0-0.1,0.1-0.1c0.1,0.1,0.2,0,0.2-0.1
		c0.1-0.1,0.2-0.2,0.3-0.3c0,0,0,0,0.1-0.1c0.1-0.3,0.2-0.4,0.5-0.3c0.1,0,0.1-0.1,0.1-0.2c0-0.3,0-0.3,0.3-0.4c0.1,0,0.1,0,0.2,0
		c0.1,0,0.1-0.1,0.2-0.2c0,0,0-0.1,0-0.1c0-0.3,0.1-0.4,0.4-0.4c0.2,0,0.2-0.1,0.2-0.2c0-0.4,0-0.4,0.4-0.4c0.1,0,0.2,0,0.2-0.2
		c0-0.2,0.1-0.3,0.1-0.5c0,0,0.1-0.1,0.1-0.1c0.1,0,0.2,0,0.2,0c0.2,0,0.2-0.1,0.3-0.2c0-0.1,0.1-0.2,0.2-0.2c0,0,0.1,0,0.1-0.1
		c0.1-0.1,0.1-0.2,0.3,0c0.1,0.1,0.2,0,0.4,0c0.2,0,0.2-0.1,0.2-0.2c0-0.1,0-0.1,0-0.2c0.1-0.2,0.2-0.3,0.5-0.2
		c0.2,0.1,0.4,0.1,0.5,0.1c0.1,0,0.1,0,0.1-0.1c0,0,0-0.1,0-0.1c0-0.4,0-0.4,0.4-0.4c0.2,0,0.4-0.1,0.6-0.1c0.2,0,0.4,0.1,0.6,0.1
		c0.1,0,0.2,0,0.2-0.2c0-0.2,0.1-0.3,0.3-0.3c0.1,0,0.2,0,0.3-0.1c0.1-0.1,0.1,0,0.2,0c1,0,2.1,0,3.1,0c0.1,0,0.2,0,0.3,0.1
		c0.1,0.1,0.2,0.1,0.3,0.1c0.1,0,0.2,0,0.2,0.2c0,0.1,0.1,0.2,0.2,0.2c0.2,0,0.3,0,0.5,0c0.1-0.1,0.3,0,0.4,0c0.2,0,0.4,0.1,0.6,0.1
		c0.1,0,0.1,0.2,0.1,0.3c0,0.4,0,0.4,0.4,0.4c0.1,0,0.2,0,0.2,0c0.3-0.1,0.5,0,0.6,0.3c0.1,0.1,0.1,0.1,0.2,0.1
		c0.2,0,0.4,0.1,0.4,0.4c0,0,0,0.1,0,0.1c0,0.3,0.2,0.4,0.5,0.4c0.1,0,0.1,0,0.1-0.1c0-0.2,0.1-0.1,0.2,0c0.2,0.4,0.5,0.5,0.8,0.7
		c0.3,0.2,0.6,0.5,0.8,0.9c0.1,0.2,0.3,0.5,0.6,0.6c0.1,0,0.1,0.1,0.1,0.1c0.1,0.1,0.1,0.1,0,0.1c-0.1,0-0.1,0.1-0.1,0.2
		c0,0,0,0,0,0.1c0.1,0.3,0.1,0.3,0.4,0.4c0.3,0,0.3,0.1,0.3,0.3c0,0.2,0.1,0.3,0.3,0.3c0.1,0,0.3,0.2,0.3,0.4c0,0.1,0,0.2,0.1,0.2
		c0.1,0.1,0.1,0.2,0.1,0.3c0,0.2,0.1,0.3,0.2,0.3c0.1,0,0.1,0.1,0.1,0.1c0,0.2,0,0.4,0.3,0.6c-0.1,0.2-0.2,0.3-0.3,0.5c0,0,0,0,0,0
		c-0.2,0.2-0.3,0.4-0.4,0.6c0,0,0,0,0,0c-0.1,0.1-0.2,0.2-0.3,0.4c-0.1,0-0.1,0.1-0.2,0.1c0,0-0.1,0-0.1,0c0,0,0,0,0,0c0,0,0,0,0,0
		c0,0.1-0.1,0.1-0.1,0.1c-0.1,0-0.1,0.1-0.1,0.1c0,0,0,0,0,0c-0.1,0-0.1,0-0.1,0.1c0,0,0,0,0,0c0,0-0.1,0-0.1,0c0-0.1,0-0.1-0.1-0.1
		c-0.2,0-0.2-0.2-0.2-0.3c0-0.1,0.1-0.1,0.1,0c0.1,0,0.1,0.1,0.1,0.1c0,0,0,0.1,0.1,0.1c0.1,0,0.1-0.1,0-0.2c-0.2-0.2,0-0.5-0.2-0.7
		c0,0,0-0.1,0-0.2c0-0.1,0-0.2-0.2-0.3c-0.1,0-0.1-0.1-0.1-0.2c0-0.2,0-0.3-0.2-0.3c-0.1,0-0.1-0.1-0.1-0.2c0-0.2-0.1-0.4-0.3-0.4
		c-0.2,0-0.2-0.2-0.2-0.3c0-0.1,0-0.2-0.2-0.3c-0.2,0-0.1-0.2-0.1-0.3c0-0.1,0.1-0.3-0.2-0.1c-0.1,0-0.1-0.1-0.2-0.2
		c0-0.3-0.2-0.4-0.4-0.4c-0.1,0-0.2-0.1-0.2-0.2c0-0.2-0.2-0.4-0.4-0.4c-0.2,0-0.2-0.1-0.2-0.2c0-0.1-0.3-0.4-0.4-0.4
		c-0.1,0-0.2,0-0.2-0.1c0-0.1,0.1-0.1,0.1-0.2c0.1-0.1,0-0.1-0.1-0.1c-0.1,0-0.2,0-0.3,0c-0.1,0-0.2,0-0.3-0.1
		c0-0.1-0.2-0.1-0.3-0.1c-0.2,0-0.3,0-0.3-0.2c0-0.1-0.1-0.1-0.2-0.2c-0.2,0-0.4,0-0.3-0.3c0-0.1-0.1-0.1-0.1-0.1
		c-0.2,0-0.4,0-0.5-0.2c0,0,0,0-0.1,0c-0.3,0.1-0.5-0.1-0.8-0.1c-0.2,0-0.4-0.1-0.4-0.3c0-0.1-0.1,0-0.1,0c-0.4,0-0.7,0-1.1,0
		c-0.5,0-1.1,0-1.6,0c-0.5,0-1,0.1-1.5,0c-0.1,0-0.1,0-0.1,0c-0.1,0.2-0.3,0.2-0.4,0.2c-0.1,0-0.2,0-0.2,0.1
		c-0.1,0.1-0.2,0.1-0.3,0.1c-0.1,0-0.2,0-0.2,0.1c0,0.2-0.2,0.1-0.3,0.1c-0.1,0-0.3,0-0.3,0.2c0,0.1-0.1,0.1-0.2,0.1
		c-0.2,0-0.3-0.1-0.4,0.2c0,0.1-0.1,0-0.2,0c-0.1,0-0.1,0-0.2,0c0,0-0.1,0-0.1,0.1c0,0,0,0.1,0.1,0.1c0.1,0,0.1,0.1,0.1,0.2
		c0,0.1-0.1,0.1-0.2,0.1c-0.1-0.1-0.2,0-0.2,0c-0.1,0.1-0.3,0.3-0.3,0.5c0,0.1-0.1,0.1-0.2,0.1c-0.3,0.1-0.3,0.1-0.4,0.3
		c0,0.1-0.1,0.1-0.1,0.1c-0.2,0-0.3,0.1-0.4,0.2c-0.1,0-0.1,0.1-0.1,0.2c0,0.1,0,0.2-0.2,0.3c-0.2,0-0.3,0.1-0.3,0.3
		c0,0.2-0.1,0.2-0.2,0.2c-0.2,0.1-0.4,0.3-0.4,0.6c0,0.1-0.1,0.1-0.2,0.2c0,0-0.1,0-0.1,0c0,0.3-0.3,0.4-0.2,0.7
		c0,0.2-0.1,0.3-0.3,0.3c-0.2,0-0.2,0.1-0.2,0.3c0,0.3-0.2,0.5-0.1,0.7c0,0.1-0.1,0.1-0.2,0.1c-0.1,0-0.2,0.1-0.1,0.2
		c0,0.2,0,0.3,0,0.5c-0.3,0-0.3,0-0.2,0.2c0,0,0,0.1,0,0.1c-0.1,0-0.1-0.2-0.3-0.2c0,0,0,0,0,0c-0.1-0.2-0.2-0.3-0.3-0.4
		c0,0,0,0-0.1-0.1c0-0.1-0.1-0.2-0.2-0.2c0,0,0,0,0,0C87.3,244.2,87.1,243.9,86.8,243.5z"/>
	<path id="XMLID_131_" class="st20" d="M110.6,233.3C110.6,233.3,110.6,233.4,110.6,233.3c0,0.3,0,0.5,0.1,0.6
		c0.1,0.3,0.1,0.5,0.1,0.8c0,0,0,0.1,0.1,0.1c0,0.2,0.1,0.4,0,0.6c-0.1,0-0.1,0-0.2,0.1c-0.1,0.1-0.4,0-0.4,0c0-0.1-0.1-0.3,0-0.4
		c0.1-0.1,0.1-0.2,0-0.3c-0.1-0.1-0.2-0.1-0.3,0c-0.1,0.1-0.3,0.1-0.4,0c-0.1-0.1-0.1-0.2,0-0.4c0.1-0.1,0.1-0.2,0-0.3
		c-0.1-0.1-0.2-0.1-0.3,0c-0.1,0.1-0.3,0.1-0.4,0c-0.1-0.1-0.1-0.3,0-0.4c0.1-0.1,0.1-0.2,0-0.3c-0.1-0.1-0.2-0.1-0.3,0
		c-0.1,0.1-0.3,0.1-0.4,0c-0.1-0.1-0.1-0.3,0-0.3c0.1-0.1,0.1-0.1,0-0.2c-0.1-0.1-0.2-0.1-0.2,0c0,0-0.1,0.1-0.1,0.1
		c-0.3,0-0.4-0.2-0.3-0.5c0-0.1,0-0.2-0.2-0.2c-0.1,0-0.2,0-0.2,0c-0.1,0-0.2,0-0.2-0.2c0-0.1-0.1-0.2-0.2-0.2
		c-0.2,0-0.5-0.2-0.7-0.1c-0.2,0-0.3,0-0.3-0.3c0-0.4,0-0.4-0.4-0.4c-0.2,0-0.3,0.1-0.5,0.1c-0.1,0-0.2,0-0.2-0.1
		c0-0.1,0-0.2-0.1-0.3c0-0.2-0.1-0.2-0.3-0.2c-0.2,0-0.5,0-0.7,0c-0.1,0-0.2,0-0.2-0.1c-0.1-0.4-0.1-0.4-0.5-0.4c-0.1,0-0.1,0-0.2,0
		c-0.1-0.1-0.2-0.1-0.4-0.1c-0.2,0-0.3,0-0.5,0c-0.1,0-0.2,0-0.3-0.2c0-0.2-0.1-0.2-0.3-0.2c-0.2,0-0.4,0-0.7,0
		c-0.1,0-0.1,0-0.2-0.1c-0.1-0.1-0.2-0.1-0.3-0.1c-0.2,0-0.5,0-0.7,0c-0.2,0-0.5,0-0.7,0c-0.4-0.1-0.9-0.1-1.3,0
		c-0.1,0-0.1,0-0.1-0.1c0-0.2,0-0.3-0.2-0.4c0.2-0.4,0.5-0.8,0.7-1.2c0.3-0.6,0.6-1.2,0.7-1.9c0-0.1,0-0.1,0.1-0.1
		c0,0.1,0.1,0.1,0.1,0.1c0.4,0,0.7,0.1,1.1,0.1c0.3,0,0.6,0.1,0.9,0c0,0,0.1,0,0.1,0c0.1,0.1,0.3,0.1,0.5,0.1c0.2,0,0.3,0,0.5,0
		c0.1,0,0.1,0,0.1,0.1c0,0.2,0.2,0.3,0.4,0.3c0.3,0,0.5,0.2,0.8,0.1c0,0,0,0,0,0c0.1,0.1,0.2,0.1,0.4,0.1c0.1,0,0.2,0,0.2,0.1
		c0.1,0.1,0.2,0.2,0.3,0.2c0.1,0,0.2,0,0.3,0c0.1,0.1,0.2,0.1,0.4,0.2c0.1,0,0.2,0,0.3,0c0.1,0,0.2,0,0.1,0.1
		c-0.1,0.1,0,0.2,0.1,0.2c0.4,0.1,0.8,0.2,1.2,0.3c0.1,0,0.2,0,0.2,0.2c0,0.1,0.1,0.2,0.2,0.2c0.1,0,0.3,0,0.5,0.1
		c0.2,0,0.4,0.1,0.4,0.2c0.1,0.2,0.2,0.4,0.4,0.5c0.1,0,0.2,0.1,0.3,0.2c0.2,0.2,0.4,0.2,0.6,0.4c0.2,0.2,0.3,0.5,0.4,0.8
		c0.2,0.4,0.3,0.9,0.5,1.3c0.1,0.4,0.2,0.7,0.3,1.1C110.5,233,110.5,233.2,110.6,233.3z"/>
	<path id="XMLID_130_" class="st21" d="M97.3,228.9c0.2,0.1,0.2,0.2,0.2,0.4c0,0.1,0,0.1,0.1,0.1c0.4,0,0.9-0.1,1.3,0
		c0.2,0.1,0.5,0,0.7,0c0.2,0,0.5,0,0.7,0c0.1,0,0.2,0,0.3,0.1c0,0.1,0.1,0.1,0.2,0.1c0.2,0,0.4,0,0.7,0c0.2,0,0.3,0.1,0.3,0.2
		c0,0.1,0.1,0.2,0.3,0.2c0.2,0,0.3,0,0.5,0c0.1,0,0.3,0,0.4,0.1c0,0.1,0.1,0,0.2,0c0.4,0,0.4,0,0.5,0.4c0,0.1,0.1,0.2,0.2,0.1
		c0.2,0,0.4,0,0.7,0c0.2,0,0.3,0.1,0.3,0.2c0,0.1,0.1,0.2,0.1,0.3c0,0.1,0.1,0.1,0.2,0.1c0.2,0,0.3-0.1,0.5-0.1c0.4,0,0.4,0,0.4,0.4
		c0,0.2,0.1,0.3,0.3,0.3c0.3,0,0.5,0.1,0.7,0.1c0.1,0,0.2,0.1,0.2,0.2c0,0.1,0.1,0.2,0.2,0.2c0.1,0,0.2,0,0.2,0
		c0.1,0,0.2,0.1,0.2,0.2c-0.1,0.3,0.1,0.4,0.3,0.5c0.1,0,0.1,0,0.1-0.1c0.1-0.1,0.2-0.1,0.2,0c0.1,0.1,0,0.2,0,0.2
		c-0.1,0.1-0.1,0.3,0,0.3c0.1,0.1,0.3,0.1,0.4,0c0.1-0.1,0.2-0.1,0.3,0c0.1,0.1,0.1,0.2,0,0.3c-0.1,0.1-0.1,0.3,0,0.4
		c0.1,0.1,0.3,0.1,0.4,0c0.1-0.1,0.2-0.1,0.3,0c0.1,0.1,0.1,0.2,0,0.3c-0.2,0.1-0.1,0.3,0,0.4c0.1,0.1,0.2,0.1,0.4,0
		c0.1-0.1,0.2-0.1,0.3,0c0.1,0.1,0.1,0.2,0,0.3c-0.2,0.1-0.1,0.3,0,0.4c0,0.1,0.3,0.1,0.4,0c0.1,0,0.1-0.1,0.2-0.1
		c0,0.1,0,0.2,0,0.3c0,0.2,0,0.3,0.1,0.5c0,0,0,0.1,0,0.1c0,0.4,0,0.8,0,1.2c0,0.1,0,0.2,0,0.3c-0.1,0.2-0.1,0.4-0.1,0.5
		c-0.1,0-0.3,0.1-0.3-0.1c-0.1-0.1-0.2-0.2-0.2-0.4c0-0.1,0-0.2-0.1-0.2c-0.3-0.2-0.4-0.6-0.7-0.8c-0.1,0-0.2-0.1-0.2-0.3
		c-0.1-0.2-0.2-0.3-0.4-0.4c-0.1,0-0.2-0.1-0.2-0.2c-0.1-0.2-0.2-0.3-0.4-0.4c-0.1-0.1-0.2-0.1-0.2-0.3c-0.1-0.1-0.2-0.2-0.3-0.3
		c-0.2-0.1-0.3-0.2-0.4-0.4c-0.1-0.2-0.4-0.3-0.5-0.5c-0.1-0.1-0.2-0.1-0.3-0.1c-0.1,0-0.3-0.1-0.3-0.2c0-0.2-0.3-0.4-0.5-0.4
		c-0.2,0-0.5-0.1-0.6-0.3c-0.1-0.1-0.2-0.1-0.3-0.2c-0.2,0-0.4,0-0.5-0.3c0-0.1-0.1-0.1-0.2-0.1c-0.1,0-0.2,0-0.2-0.1
		c-0.1-0.1-0.2-0.2-0.3-0.1c-0.1,0-0.3,0-0.4-0.1c0,0-0.1-0.1-0.1,0c-0.2,0-0.4-0.1-0.5-0.2c-0.1-0.1-0.1-0.1-0.2-0.1
		c-0.2,0-0.5-0.1-0.7,0c0,0-0.1,0-0.1,0c-0.3-0.3-0.6-0.2-0.9-0.2c-0.1,0-0.3,0-0.4-0.2c-0.1-0.2-0.3-0.1-0.5-0.1
		c-0.2,0.1-0.5,0.1-0.7-0.1c0,0-0.1,0-0.2,0c-0.7,0-1.3,0-2,0c-0.3,0-0.6,0-0.9,0.2c-0.1,0.1-0.3,0-0.4,0c-0.3,0-0.5-0.1-0.8,0.1
		c-0.1,0.1-0.2,0-0.3,0c-0.2,0.1-0.4,0.2-0.6,0.2c-0.1,0-0.2,0-0.2,0.1c0,0.1-0.1,0.1-0.2,0.1c-0.3,0-0.5,0.1-0.7,0.2
		c0,0-0.1,0-0.2,0c-0.1,0-0.2,0-0.3,0.1c-0.1,0.1-0.2,0.1-0.3,0.1c-0.3,0-0.4,0.1-0.4,0.4c0,0.1-0.1,0.1-0.1,0.1
		c-0.3,0-0.5,0.2-0.8,0.1c-0.1,0-0.2,0.1-0.2,0.3c0,0.1,0,0.1-0.1,0.1c-0.1,0-0.3,0.1-0.4,0.3c0,0.1-0.1,0.1-0.2,0.1
		c-0.2,0-0.4,0-0.5,0.3c0,0.1-0.1,0.1-0.2,0.1c-0.1,0-0.2,0-0.3,0c-0.1,0-0.1,0.1-0.1,0.1c-0.1,0.2-0.2,0.4-0.4,0.5
		c-0.4,0.4-0.8,0.8-1.2,1.1c-0.4,0.4-0.8,0.8-1.2,1.2c-0.1,0.1-0.1,0.2-0.2,0.3c0,0.2-0.2,0.3-0.3,0.4c-0.1,0.1-0.2,0.1-0.3,0.3
		c0,0.1-0.1,0.2-0.2,0.4c-0.1-0.1-0.1-0.2-0.1-0.3c0-0.1,0-0.1-0.1-0.1c-0.1-0.5-0.1-1,0-1.4c0-0.4,0-0.8,0.1-1.2
		c0.1,0,0.3,0.1,0.2-0.2c0-0.1,0-0.2,0.2-0.2c0.1,0,0.1,0,0.2-0.1c0.1-0.2,0.4-0.3,0.5-0.5c0.1-0.1,0.2-0.3,0.3-0.3
		c0.4-0.1,0.5-0.6,0.8-0.8c0.2-0.1,0.4-0.3,0.5-0.5c0.1-0.1,0.1-0.1,0.2-0.1c0.1,0,0.2-0.1,0.2-0.2c0.1-0.1,0.1-0.2,0.3,0
		c0.1,0.1,0.3,0.1,0.4,0.1c0.1,0,0.2-0.4,0.1-0.4c-0.1-0.2,0-0.3,0.2-0.3c0.1,0,0.1,0,0.2,0c0.1,0,0.2,0,0.2-0.2
		c0-0.2,0.1-0.3,0.3-0.2c0.1,0,0.2,0,0.2-0.1c0.1-0.1,0.2-0.1,0.3-0.1c0.2,0,0.4-0.1,0.4-0.3c0-0.1,0.1-0.1,0.2-0.1
		c0.1,0,0.3,0,0.3-0.1c0.1-0.2,0.3-0.2,0.4-0.3c0,0.1,0.1,0.2,0.1,0.3c0.2,0.4,0.3,0.7,0.6,1c0,0.1,0.1,0.1,0.2,0.1
		c0.3-0.1,0.5-0.2,0.8-0.3c0.5-0.2,1-0.4,1.4-0.7c0.5-0.4,1.1-0.7,1.5-1.2c0,0,0.1-0.1,0-0.1c0.1,0,0.2-0.1,0.2-0.1
		C97,229.2,97.2,229.1,97.3,228.9z"/>
	<path id="XMLID_129_" class="st22" d="M109.2,229.5c-0.2-0.1-0.4-0.2-0.6-0.4c-0.1-0.1-0.2-0.1-0.3-0.2c-0.2-0.1-0.4-0.2-0.4-0.5
		c0-0.1-0.2-0.2-0.4-0.2c-0.1,0-0.3-0.1-0.5-0.1c-0.1,0-0.2-0.1-0.2-0.2c0-0.2-0.1-0.1-0.2-0.2c-0.4-0.2-0.8-0.2-1.2-0.3
		c-0.1,0-0.2-0.1-0.1-0.2c0.1-0.1,0-0.1-0.1-0.1c-0.1,0-0.2,0-0.3,0c-0.1,0-0.3-0.1-0.4-0.2c-0.1-0.1-0.2,0-0.3,0
		c-0.1,0-0.2,0-0.3-0.2c0-0.1-0.1-0.1-0.2-0.1c-0.1,0-0.3,0-0.4-0.1c0,0,0,0,0,0c-0.3,0-0.5-0.1-0.8-0.1c-0.2,0-0.4,0-0.4-0.3
		c0-0.1-0.1-0.1-0.1-0.1c-0.2,0-0.3,0-0.5,0c-0.2,0-0.3,0-0.5-0.1c0,0-0.1,0-0.1,0c-0.3,0-0.6-0.1-0.9,0c-0.4,0-0.7-0.1-1.1-0.1
		c-0.1,0-0.1,0-0.1-0.1c0-0.4,0.1-0.7,0.2-1.1c0.1-0.5,0.1-1.1,0.1-1.6c0-0.5,0-0.9,0-1.4c0-0.4,0-0.8-0.1-1.2c0-0.2-0.1-0.3,0-0.5
		c0,0,0.1,0,0.1,0c0.2,0.1,0.4,0.3,0.6,0.3c0,0,0,0,0,0c0.1,0.1,0.2,0.2,0.4,0.2c0,0,0,0,0,0c0,0,0,0.1,0.1,0.1
		c0.3,0.2,0.7,0.4,1,0.6c0.1,0,0.1,0.1,0.3,0.1c0,0,0,0,0,0c0,0,0,0.1,0,0.1c0.2,0.2,0.5,0.3,0.7,0.5c0.1,0,0.1,0.1,0.2,0.1
		c0,0,0,0,0,0c0,0.1,0,0.1,0.1,0.1c0.2,0.1,0.4,0.3,0.6,0.4c0.1,0,0.1,0.2,0.2,0.1c0,0,0,0,0,0c0.1,0.2,0.3,0.3,0.5,0.4c0,0,0,0,0,0
		c0,0.1,0.1,0.2,0.2,0.2c0,0,0,0,0,0c0,0.1,0.1,0.1,0.1,0.2c0.7,0.6,1.3,1.2,1.9,1.9c0.1,0.1,0.1,0.1,0.2,0.1c0,0,0,0,0,0
		c0.1,0.3,0.3,0.5,0.5,0.6c0,0,0,0,0,0c0,0.1,0,0.2,0.1,0.2l0,0c0,0,0,0,0,0c0,0.1,0,0.1,0.1,0.1c0,0,0,0,0,0c0,0.2,0.1,0.2,0.2,0.3
		c0.1,0.2,0.2,0.4,0.5,0.6c0,0,0,0,0,0c0,0.1,0,0.1,0,0.1c0.3,0.4,0.6,0.8,0.8,1.3C108.9,228.8,109.1,229.1,109.2,229.5z"/>
	<path id="XMLID_128_" class="st23" d="M93.8,249c0-0.1,0.1-0.1,0.1,0c0.1,0.1,0.1,0,0.2,0.1c0.1,0,0.2,0,0.1-0.1c0-0.1,0-0.1,0-0.1
		c0.1,0,0.1,0,0.2,0c0.1,0,0.1-0.1,0.1-0.2c0-0.1,0-0.2,0-0.4c0-0.1,0-0.1,0.1-0.2c0.1-0.1,0.1-0.2,0.1-0.3c0-0.1,0-0.2,0.1-0.2
		c0.2,0,0.2-0.1,0.2-0.3c0-0.1,0-0.3,0.2-0.3c0,0,0,0,0.1-0.1c0.3-0.3,0.6-0.6,0.9-0.9c0,0,0.1-0.1,0.1-0.1c0-0.2,0.2-0.2,0.3-0.2
		c0.3,0,0.7-0.1,1-0.1c0.3,0,0.7-0.1,0.9,0c0.3,0.1,0.6,0,0.8,0.3c0,0,0,0,0,0c0.3-0.1,0.4,0.2,0.6,0.4c0.3,0.2,0.5,0.5,0.8,0.8
		c0.1,0.1,0.2,0.2,0.2,0.4c0,0.1,0,0.2,0.1,0.2c0.1,0,0.1,0.2,0.1,0.3c0,0.1,0,0.2,0.1,0.4c0.1,0.1,0,0.2,0,0.4c0,0.1,0,0.2,0.1,0.2
		c0.1,0,0.1,0.1,0.1,0.2c0,0.1,0,0.1,0.1,0.1c0.1,0,0.1,0,0.1-0.1c0.1-0.1,0.1-0.1,0.2,0c0.1,0.1,0.2,0,0.2,0
		c0.2-0.1,0.5-0.2,0.7-0.3c0,0,0.1,0,0.1,0c-0.2,0.2-0.5,0.2-0.8,0.3c-0.9,0.3-1.8,0.5-2.8,0.6c-1,0.1-2,0.1-3.1,0
		c-0.9-0.1-1.8-0.2-2.6-0.5C93.9,249,93.9,249,93.8,249z"/>
	<path id="XMLID_127_" class="st24" d="M92,230.5c-0.1,0.1-0.3,0.1-0.4,0.3c0,0.1-0.2,0.1-0.3,0.1c-0.1,0-0.2,0-0.2,0.1
		c-0.1,0.2-0.2,0.3-0.4,0.3c-0.1,0-0.2,0-0.3,0.1c0,0.1-0.1,0.1-0.2,0.1c-0.2-0.1-0.3,0-0.3,0.2c0,0.1-0.1,0.2-0.2,0.2
		c-0.1,0-0.1,0-0.2,0c-0.2,0-0.2,0.1-0.2,0.3c0,0.1-0.1,0.4-0.1,0.4c-0.1,0.1-0.3,0-0.4-0.1c-0.1-0.1-0.2-0.1-0.3,0
		c-0.1,0.1-0.1,0.2-0.2,0.2c-0.1,0-0.1,0.1-0.2,0.1c-0.2,0.2-0.3,0.4-0.5,0.5c-0.3,0.2-0.4,0.6-0.8,0.8c-0.1,0-0.2,0.2-0.3,0.3
		c-0.2,0.2-0.4,0.3-0.5,0.5c0,0.1-0.1,0.1-0.2,0.1c-0.1,0-0.2,0.1-0.2,0.2c0.1,0.2-0.1,0.2-0.2,0.2c0-0.1,0.1-0.3,0-0.4
		c0,0,0-0.1,0-0.1c0.1,0,0.1-0.1,0.1-0.1c0.1-0.5,0.3-1.1,0.5-1.6c0.4-1,0.9-1.8,1.5-2.7c0-0.1,0.1-0.1,0.1-0.2c0,0,0,0,0,0
		c0.2-0.1,0.3-0.3,0.4-0.5c0,0,0,0,0,0c0.2-0.1,0.3-0.2,0.3-0.4c0,0,0,0,0,0c0.1,0,0.1,0,0.1-0.1c0,0,0,0,0,0c0.1,0,0.1,0,0.1-0.1
		c0,0,0,0,0,0c0.3-0.2,0.6-0.5,0.8-0.8c0,0,0,0,0,0c0,0,0,0,0,0c0.3-0.1,0.5-0.3,0.7-0.5c0,0,0,0,0,0c0,0,0,0,0,0
		c0.1,0,0.2-0.1,0.3-0.2c0,0,0,0,0.1,0c0.1,0,0.1,0,0.2-0.1c0.2-0.1,0.4-0.3,0.6-0.4c0.1-0.1,0.3-0.1,0.3,0.1c0,0.2,0.1,0.3,0.1,0.5
		c0,0.6,0.2,1.3,0.3,1.9C91.9,230,92,230.2,92,230.5z"/>
</g>
<line id="XMLID_22_" class="st25" x1="968.8" y1="218.2" x2="1020.8" y2="218.2"/>
<line id="XMLID_23_" class="st25" x1="968.8" y1="236.2" x2="1020.8" y2="236.2"/>
<line id="XMLID_24_" class="st25" x1="968.8" y1="254.2" x2="1020.8" y2="254.2"/>
<path id="XMLID_32_" class="st10" d="M940.8,1894c-0.7-8.4-2.9-13.4-8.3-19.1c-7.2-7.7-15-11.5-23.1-11.5
	c-12.6,0-22.4,9.4-27.6,15.7c-5.2-6.4-15-15.7-27.6-15.7c-8.1,0-15.9,3.9-23.1,11.5c-5.4,5.7-7.5,10.7-8.3,19
	c-3.8,35.4,47,67.1,55.9,72.4c0.3,0.2,0.6,0.4,0.9,0.6c0.7,0.4,1.4,0.5,2.1,0.5c0.4,0,0.8-0.1,1.2-0.2c0.4-0.1,0.8-0.2,1.1-0.4
	c0.2-0.1,0.5-0.3,0.7-0.4C892.9,1961.6,944.6,1929.6,940.8,1894z M915.6,1895.3c-0.6-1.2-1.8-2.1-3.7-2.6c-2.4-0.7-3.8-3.2-3.1-5.6
	c0.7-2.4,3.2-3.8,5.6-3.1c5.6,1.6,8.1,4.9,9.3,7.4c1.7,3.7,1.7,8.1-0.2,12.4c-0.7,1.7-2.4,2.7-4.1,2.7c-0.6,0-1.2-0.1-1.8-0.4
	c-2.3-1-3.3-3.6-2.4-5.9C916.1,1898.4,916.2,1896.6,915.6,1895.3z"/>
<path id="XMLID_30_" class="st9" d="M254.5,1894.5c0,0-2.1,10.3-13.7,13.7c0,0,17.8-28.1-22.6-68.6c0,0-5.5,31.5-23.3,54.2
	c0,0-37.7,48,2.7,75.4c6.9,4.8,15.8,6.9,24,6.9l0,0c-4.8,0-8.9-1.4-13-3.4c-22.6-15.1-1.4-41.8-1.4-41.8c11-12.3,13-29.5,13-29.5
	c19.2,19.2,13,37.7,13,37.7c6.9-2.1,7.5-10.3,7.5-10.3c11.7,16.5,6.2,32.9-0.7,40.5c-4.1,4.1-9.6,6.9-15.8,7.5
	c11-0.7,21.3-5.5,29.5-13C266.2,1949.4,278.5,1925.4,254.5,1894.5z"/>
<line id="XMLID_5_" class="st4" x1="221.6" y1="1976.1" x2="224.9" y2="1976.7"/>
</svg>
