<?xml version="1.0" encoding="utf-8"?>
<!-- Generator: Adobe Illustrator 19.0.0, SVG Export Plug-In . SVG Version: 6.00 Build 0)  -->
<svg version="1.1" id="Layer_1" xmlns="http://www.w3.org/2000/svg" xmlns:xlink="http://www.w3.org/1999/xlink" x="0px" y="0px"
	 viewBox="0 0 1087.9 2182.2" style="enable-background:new 0 0 1087.9 2182.2;" xml:space="preserve">
<style type="text/css">
	.st0{fill:none;stroke:#000000;stroke-width:4;stroke-miterlimit:15;}
	.st1{fill:none;stroke:#1C1C1C;stroke-width:4;stroke-miterlimit:10;}
	.st2{fill:none;stroke:#1C1C1C;stroke-width:10;stroke-miterlimit:10;}
	.st3{fill:none;}
	.st4{font-family:'MyriadPro-Regular';}
	.st5{font-size:125px;}
	.st6{fill:#3DBF32;}
	.st7{fill:#DD1B65;}
	.st8{fill:none;stroke:#EFEFEF;stroke-width:4;stroke-miterlimit:10;}
	.st9{fill:none;stroke:#EAEAEA;stroke-width:4;stroke-miterlimit:10;}
	.st10{font-size:70px;}
	.st11{fill:#141414;}
	.st12{fill:#EFEFEF;}
	.st13{font-size:30px;}
</style>
<image style="overflow:visible;" width="2878" height="1616" id="XMLID_99_" xlink:href="derek-thomson-422319-unsplash.jpg"  transform="matrix(0.1605 0 0 0.1605 314.3799 255.2156)">
</image>
<path id="XMLID_26_" class="st0" d="M33.8,171c0-12.2,10.3-21.8,22.5-21.8 M1007.7,0.2H86.4C40.6,0.2,2.8,37.5,2.8,83.3V2099
	c0,45.8,37.8,83.3,83.6,83.3h921.3c45.8,0,83.1-37.5,83.1-83.3V83.3C1090.8,37.5,1053.5,0.2,1007.7,0.2z M1037.9,149.2
	c12.2,0,21.9,9.6,21.9,21.8"/>
<path id="XMLID_28_" d="M877.5,111.6H213.1c-1.5,0-2.7-1.2-2.7-2.7V94.4c0-1.5,1.2-2.7,2.7-2.7h664.4c1.5,0,2.7,1.2,2.7,2.7v14.6
	C880.2,110.4,879,111.6,877.5,111.6z"/>
<circle id="XMLID_29_" cx="545.3" cy="44.8" r="12.9"/>
<image style="overflow:visible;" width="5245" height="3497" id="XMLID_97_" xlink:href="anne-edgar-119384-unsplash.jpg"  transform="matrix(0.1088 0 0 0.1088 261.6259 468.3461)">
</image>
<path id="XMLID_21_" class="st1" d="M1059.8,171v1880.4c0,12.2-9.8,21.8-21.9,21.8H56.3c-12.2,0-22.5-9.6-22.5-21.8V171
	c0-12.2,10.3-21.8,22.5-21.8h981.6C1050.1,149.2,1059.8,158.8,1059.8,171z"/>
<rect id="XMLID_98_" x="208.1" y="669.2" class="st2" width="677.9" height="1010.8"/>
<image style="overflow:visible;" width="3666" height="5466" id="XMLID_96_" xlink:href="benjaminrobyn-jespersen-438346-unsplash.jpg"  transform="matrix(0.1849 0 0 0.1849 208.1115 669.1644)">
</image>
<rect id="XMLID_1_" x="362.1" y="1863.2" class="st3" width="370" height="146"/>
<text id="XMLID_2_" transform="matrix(1 0 0 1 405.8999 1951.9664)" class="st4 st5">00:04</text>
<ellipse id="XMLID_3_" class="st6" cx="880.6" cy="1908.2" rx="91.3" ry="89"/>
<ellipse id="XMLID_4_" class="st7" cx="223.6" cy="1908.2" rx="91.3" ry="89"/>
<line id="XMLID_5_" class="st8" x1="825.5" y1="1921.9" x2="865.5" y2="1961.9"/>
<line id="XMLID_6_" class="st8" x1="865.5" y1="1961.9" x2="948.5" y2="1878.9"/>
<line id="XMLID_7_" class="st9" x1="175.8" y1="1863.2" x2="270.7" y2="1958.1"/>
<line id="XMLID_8_" class="st9" x1="270.7" y1="1863.2" x2="179.7" y2="1954.1"/>
<text id="XMLID_9_" transform="matrix(1 0 0 1 461.5109 1819.2174)" class="st4 st10">13/50</text>
<path id="XMLID_17_" d="M1059.8,171v19.2H33.8V171c0-12.2,10.3-21.8,22.5-21.8h981.6C1050.1,149.2,1059.8,158.8,1059.8,171z"/>
<g id="XMLID_10_">
	<g id="XMLID_36_">
		<polygon id="XMLID_37_" class="st11" points="74.8,1179.2 174.3,1138.6 150.7,1179.2 174.3,1219.9 		"/>
	</g>
</g>
<g id="XMLID_11_">
	<g id="XMLID_33_">
		<path id="XMLID_34_" class="st11" d="M1009.5,1179.2c-28.4-10.5-63.6-28.5-85.5-47.6l17.2,47.6l-17.2,47.5
			C945.9,1207.7,981.1,1189.7,1009.5,1179.2z"/>
	</g>
</g>
<rect id="XMLID_12_" x="908.8" y="160.1" class="st3" width="174.7" height="53.5"/>
<text id="XMLID_13_" transform="matrix(1 0 0 1 962.2783 181.4122)" class="st12 st4 st13">20:28</text>
<path id="XMLID_16_" class="st12" d="M944.3,159.7h-16.3c-0.7,0-1.3,0.6-1.3,1.3v21.1c0,0.7,0.6,1.3,1.3,1.3h16.3
	c0.7,0,1.3-0.6,1.3-1.3V161C945.6,160.3,945,159.7,944.3,159.7z"/>
<rect id="XMLID_18_" x="932.3" y="156.7" class="st12" width="7.6" height="3.4"/>
</svg>
