<svg xmlns="http://www.w3.org/2000/svg" xmlns:xlink="http://www.w3.org/1999/xlink" version="1.1" x="0px" y="0px" viewBox="0 0 100 125" enable-background="new 0 0 100 100" xml:space="preserve"><g display="none"><rect x="-1021.258" y="-853.241" display="inline" fill="#000000" width="1566.157" height="1272.127"/></g><g><g><circle fill="none" cx="20.325" cy="33.447" r="4.848"/><path fill="none" d="M50,32.966c-11.087,0-20.08,8.989-20.08,20.081c0,11.087,8.993,20.077,20.08,20.077    c11.089,0,20.081-8.989,20.081-20.077C70.081,41.955,61.089,32.966,50,32.966z M50,65.326c-6.781,0-12.282-5.498-12.282-12.28    c0-6.784,5.5-12.282,12.282-12.282c6.783,0,12.282,5.498,12.282,12.282C62.282,59.827,56.783,65.326,50,65.326z"/><path d="M65.206,21.489l-3.03-4.543C61.61,16.093,60.312,15.4,59.29,15.4H40.711c-1.024,0-2.322,0.693-2.892,1.547l-3.027,4.543    H15.58c-4.746,0-8.608,3.86-8.608,8.604v45.898c0,4.747,3.862,8.609,8.608,8.609h68.843c4.745,0,8.605-3.862,8.605-8.609V30.094    c0-4.744-3.86-8.604-8.605-8.604H65.206z M20.325,38.294c-2.677,0-4.848-2.17-4.848-4.848s2.17-4.848,4.848-4.848    s4.848,2.17,4.848,4.848S23.003,38.294,20.325,38.294z M50,73.123c-11.087,0-20.08-8.989-20.08-20.077    c0-11.092,8.993-20.081,20.08-20.081c11.089,0,20.081,8.989,20.081,20.081C70.081,64.134,61.089,73.123,50,73.123z"/><circle fill="#000000" cx="50" cy="53.045" r="12.281"/></g></g><text x="0" y="115" fill="#000000" font-size="5px" font-weight="bold" font-family="'Helvetica Neue', Helvetica, Arial-Unicode, Arial, Sans-serif">Created by Oksana Latysheva</text><text x="0" y="120" fill="#000000" font-size="5px" font-weight="bold" font-family="'Helvetica Neue', Helvetica, Arial-Unicode, Arial, Sans-serif">from the Noun Project</text></svg>