<?xml version="1.0" encoding="utf-8"?>
<!-- Generator: Adobe Illustrator 19.0.0, SVG Export Plug-In . SVG Version: 6.00 Build 0)  -->
<svg version="1.1" id="Layer_1" xmlns="http://www.w3.org/2000/svg" xmlns:xlink="http://www.w3.org/1999/xlink" x="0px" y="0px"
	 viewBox="0 0 344 274" style="enable-background:new 0 0 344 274;" xml:space="preserve">
<style type="text/css">
	.st0{fill:none;}
</style>
<path d="M176.4,94.6c-0.3-3.1-0.6-6.5-0.9-9.9c0-0.5,0-1.4,0.3-1.5c0.4-0.2,1.2-0.2,1.7,0.1c4.9,2.8,10,5.5,14.7,8.7
	c9.4,6.4,17.3,14.3,23.7,23.7c9.7,14.3,14.4,30.1,13.2,47.3c-1.2,17.4-9.1,31.4-23.3,41.6c-9.7,7-20.6,10.2-32.5,10.5
	c-9.7,0.2-19.1-1.2-28-5.3c-15.7-7.2-25.3-19.5-29.5-36.2c-1.4-5.5-1.8-11-1.6-16.6c0.3-7.2,2.5-13.8,5.9-20
	c4.6-8.5,10.8-15.6,19-20.8c2.8-1.8,3.3-1.5,3.6,1.8c0.5,5.3,1.5,10.4,3.9,15.2c1.6,3.2,1.6,3.2,4.9,1.8c14.6-6,22.4-17.2,24.3-32.7
	C176.1,99.8,176.2,97.4,176.4,94.6z"/>
<circle class="st0" cx="58.3" cy="74.1" r="18.5"/>
<path class="st0" d="M171.7,72.3c-42.4,0-76.8,34.4-76.8,76.8c0,42.4,34.4,76.8,76.8,76.8c42.4,0,76.8-34.4,76.8-76.8
	C248.5,106.7,214.1,72.3,171.7,72.3z M171.7,196c-25.9,0-47-21-47-47c0-25.9,21-47,47-47c25.9,0,47,21,47,47
	C218.7,175,197.6,196,171.7,196z"/>
<path d="M229.9,28.4L218.3,11c-2.2-3.3-7.1-5.9-11-5.9h-71c-3.9,0-8.9,2.6-11.1,5.9l-11.6,17.4H40.1C22,28.4,7.2,43.2,7.2,61.3
	v175.5c0,18.1,14.8,32.9,32.9,32.9h263.2c18.1,0,32.9-14.8,32.9-32.9V61.3c0-18.1-14.8-32.9-32.9-32.9L229.9,28.4L229.9,28.4z
	 M58.3,92.7c-10.2,0-18.5-8.3-18.5-18.5S48,55.6,58.3,55.6s18.5,8.3,18.5,18.5C76.8,84.4,68.5,92.7,58.3,92.7z M171.7,225.8
	c-42.4,0-76.8-34.4-76.8-76.8c0-42.4,34.4-76.8,76.8-76.8c42.4,0,76.8,34.4,76.8,76.8C248.5,191.5,214.1,225.8,171.7,225.8z"/>
</svg>
