<?xml version="1.0" encoding="utf-8"?>
<!-- Generator: Adobe Illustrator 19.0.0, SVG Export Plug-In . SVG Version: 6.00 Build 0)  -->
<svg version="1.1" id="Layer_1" xmlns="http://www.w3.org/2000/svg" xmlns:xlink="http://www.w3.org/1999/xlink" x="0px" y="0px"
	 viewBox="0 0 463.4 372.7" style="enable-background:new 0 0 463.4 372.7;" xml:space="preserve">
<style type="text/css">
	.st0{fill:#FA5F64;}
	.st1{fill:#FA4E6C;}
	.st2{fill:#FB6861;}
	.st3{fill:#FA526B;}
	.st4{fill:#FA5A67;}
	.st5{fill:#FA4472;}
	.st6{fill:#FA4A6E;}
	.st7{fill:#F93B77;}
	.st8{fill:#FB745D;}
	.st9{fill:#FA4572;}
	.st10{fill:#F97495;}
</style>
<g>
	<path d="M179.5,0c34.6,0,69.3,0,103.9,0c0.1,0.1,0.2,0.2,0.3,0.2c5.9,1,10.7,3.8,14.1,8.8c5.1,7.6,10.1,15.1,15.1,22.7
		c0.5,0.8,1.1,1.1,2,1.1c33.8,0,67.5,0,101.3,0c2.3,0,4.6,0,6.9,0.4c12.7,1.9,23,7.7,30.8,18c6.2,8.2,9.5,17.5,9.5,27.9
		c0,82.4,0,164.9,0,247.3c0,14-5.6,25.7-16,34.9c-8.6,7.7-18.9,11.4-30.5,11.4c-123.6,0-247.1,0-370.7,0c-12.3,0-22.9-4.3-31.9-12.8
		C7.4,353.2,2.8,345,0.9,335.4c-0.3-1.7-0.6-3.4-0.9-5.1c0-85,0-170.1,0-255.1c0.3-0.1,0.2-0.4,0.2-0.6c0.4-4.3,1.4-8.4,3-12.4
		C10.1,44.8,27.1,32.7,47,32.8c33.8,0.1,67.7,0,101.5,0.1c1,0,1.5-0.3,2-1.1c4.9-7.5,9.9-14.9,14.8-22.4c2.6-3.9,6.1-6.6,10.4-8.2
		C177,0.7,178.3,0.4,179.5,0z M231.7,310.9c59.7,0,108.1-48.4,108.2-107.9c0.1-59.1-47.5-108-107.4-108.4
		c-60.2-0.4-107.5,47.7-108.9,105.3C122.1,261.5,171.6,310.9,231.7,310.9z M45.8,97.2c0,14.4,11.6,26.1,26,26.2
		c14.5,0,26.3-11.7,26.3-26.2c0-14.4-11.8-26.2-26.2-26.2C57.5,71,45.8,82.7,45.8,97.2z"/>
	<path class="st0" d="M285.4,273.1c-0.3,0.3-0.4,0.7-0.9,0.7c-0.5,0-0.8,0.2-0.8,0.7c0,0,0,0,0,0c-0.8,0-1.3,0.4-1.4,1.2
		c0,0,0,0,0,0c-1,0.1-1.5,0.7-1.9,1.5c0,0,0,0,0,0c-0.6-0.1-1,0-1,0.7c0,0,0,0,0,0c-1,0.1-1.7,0.7-2.4,1.4c0,0.2,0,0.3,0,0.5
		l-0.1,0.1c0,0-0.1,0-0.1,0c-0.5,0-0.7,0.1-0.8,0.6c-0.2,0.1-0.4,0.2-0.6,0.3c-0.4,0.1-0.9,0.1-1.3,0.2c-0.4-0.7-0.2-1.4-0.2-2.1
		c0-0.6,0-1.2-0.4-1.7c-0.5-0.7-0.7-1.5-0.6-2.4c0.1-0.5-0.1-0.9-0.6-1c-0.3-0.1-0.5-0.2-0.5-0.5c-0.2-1.5-1.4-2.6-1.6-4
		c-0.1-0.7-0.6-1.4-1.3-1.8c-0.4-0.2-0.7-0.5-0.7-0.9c0-1-0.5-1.7-1.3-2.3c-0.6-0.5-0.9-1.1-0.8-1.9c0.1-1.2-0.3-1.9-1.4-2.2
		c-0.8-0.2-1.3-0.6-1.3-1.4c0-0.4-0.2-0.5-0.5-0.8c-0.8-0.8-1.5-1.7-2.6-2.1c-0.5-0.2-0.8-0.7-1-1.3c-0.3-0.8-0.8-1.3-1.8-1.5
		c-1-0.2-1.8-0.9-2-2c-0.2-1.1-0.6-1.8-1.9-1.4c-0.3,0.1-0.5,0-0.7-0.1c-0.9-0.8-2-1.5-2.7-2.5c-0.4-0.7-0.9-0.9-1.6-0.9
		c-1,0.1-2.1-0.1-2.9-0.7c-1.9-1.3-3.9-1.9-6-2.5c-1.7-0.5-3.5-0.5-5.2-0.6c-3-0.2-6-0.1-9-0.1c-0.4,0-0.9,0.1-1.1,0.3
		c-0.6,0.7-1.4,0.6-2.2,0.6c-0.3,0-0.8-0.1-0.9,0.1c-0.8,0.9-1.8,0.8-2.8,1.1c-0.3,0.1-0.7,0.2-1,0.5c-1.2,1.3-2.6,1.4-4.1,1
		c-0.8-0.2-1.5,0.1-1.8,1c-0.8,1.9-2.2,2.9-4.4,2.8c-0.5,0-0.9,0-1.2,0.6c-0.6,1.4-1.8,2.3-3,3.1c-0.9,0.6-1.6,1.2-2.2,2.1
		c-1.2,1.8-3.7,2.4-4.1,4.9c0,0.1-0.1,0.1-0.1,0.2c-0.7,0.9-1.5,1.7-1.5,2.9c0,0.5-0.5,0.8-1,0.9c-0.5,0.2-1.2,0.4-1.2,1.1
		c0.1,1.2-0.6,2-1.1,3c-0.7,1.2-1.3,2.4-1.1,3.8c0,0.4-0.1,0.7-0.4,1c-0.6,0.4-0.6,1.1-0.6,1.7c0.1,1-0.3,1.6-1.3,1.9
		c-0.5,0.1-0.9,0.3-0.9,1c0.1,1.1-0.2,2.2,0.2,3.2c0.2,0.5-0.1,0.8-0.4,1.1c-0.3,0-0.5,0-0.7-0.3c0.3-1-0.6-0.6-1-0.7
		c-0.8,0.2-1.1-1-1.9-0.7c0,0,0,0,0,0c-0.3-0.9-1.3-1.1-1.9-1.6c-1-0.7-1.8-1.8-3.1-2.1c0,0,0,0,0,0c0-0.3-0.2-0.5-0.5-0.4
		c0-0.2,0-0.4-0.2-0.5c-2-1.5-3.7-3.4-5.6-5.1c-0.5-0.4-0.7-1.2-1.6-1.1c-0.1,0-0.1-0.1-0.1-0.1c0-0.2,0-0.4,0.1-0.6
		c0.3-0.2,0.2-0.4,0.1-0.7c-0.3-1.6-0.3-1.7,1.9-0.9c0.6-0.1,0.5-0.5-0.1-0.5c-1,0-0.4,0.9-0.6,1.3c-0.2,0.4,0.1,1,0.6,1
		c0.6,0,0.6-0.8,0.2-1.7c-0.6-1.5-0.6-2.5-0.6-3.5c0-0.7,0.2-1.1,0.9-1.1c0.5,0,1.3-0.2,1.2-0.8c-0.3-1.6,0.9-2.9,0.8-4.5
		c-0.1-1,0.4-1.7,1.4-1.9c1.3-0.1,1.9-0.9,1.6-2.1c-0.3-1.7,1.6-2.5,1.5-4.1c0-0.3,0.5-0.2,0.8-0.3c0.5-0.2,1.1-0.3,1-1.1
		c-0.1-1.4,1-3.1,2.4-3.4c0.9-0.2,1.3-0.6,1.3-1.5c0-1.1,0.7-1.9,1.7-2c1.1-0.1,1.3-0.8,1.4-1.6c0.1-0.4-0.1-0.9,0.4-1.1
		c0.8-0.3,1.4-1.3,2.5-1.1c0.5,0.1,0.7-0.2,0.8-0.7c0.3-1.8,0.3-1.8,2.2-2.2c0.5-0.1,1-0.2,1.1-0.8c0.1-1.4,1.1-2,1.9-2.9
		c0.4-0.5,0.8-0.8,1.5-0.3c0.4,0.4,0.9,0.1,1.2-0.4c0.3-0.4,0-0.7-0.4-1c-0.2-0.1-0.4-0.3-0.3-0.6c0.1-0.3,0.4-0.4,0.7-0.4
		c0.4,0,0.8,0,1.2,0c0.5,0,1.2,0.2,1.3-0.2c0.5-1.3,1.6-0.9,2.5-1c0.7,0,1.5-0.1,1.5-0.8c0.1-1.3,0.9-1.1,1.7-1.1
		c0.8,0,1.6,0.1,1.9-0.8c0.2-0.8,0.8-0.9,1.5-0.8c0.8,0.1,1.6,0,2.1-0.6c0.4-0.5,0.9-0.6,1.5-0.6c1,0,2,0.1,2.6-0.9
		c0.2-0.3,0.6-0.3,0.9-0.3c3.1,0.2,6.1-0.2,9.2-0.3c3.4-0.1,6.7,0.2,10,0.2c2.3,0,4.5,0.1,6.8,0.3c0.3,0,0.6-0.1,0.7,0.3
		c0.2,1.4,1.3,1.8,2.4,1.8c1.7,0,3.1,1.2,4.8,0.8c0.1,0,0.3,0.1,0.3,0.2c0.8,1.2,2,1,3.1,1c0.5,0,1,0.2,0.9,0.7
		c-0.2,1.7,0.9,1.9,2.1,1.9c0.6,0,1.2,0.3,1.2,0.9c0,1.5,1,1.5,2,1.5c0.6,0,1.4-0.2,1.7,0.5c0.3,0.9,0.9,0.9,1.7,0.9
		c0.6,0,1.1,0,1.7,0c0.5,0.1,0.9,0.4,0.4,0.9c-0.3,0.3-0.9,0.5-0.6,1.1c0.3,0.6,0.8,0.3,1.3,0.4c0.8,0.1,2.5,1.8,2.3,2.4
		c-0.2,1.1,0.3,1.4,1.3,1.4c1.2,0.1,2.4,1.5,2.3,2.6c0,0.7,0.2,1.4,1,1.3c1.5-0.1,2.7,0.9,2.7,2.5c0,0.6,0.4,1.2,0.9,0.9
		c1.3-0.7,0.9,0.3,1,0.9c0.1,0.7-0.4,1.7,0.7,1.9c1.1,0.2,1,0.9,1,1.7c0,0.8,0,1.7,1.1,1.9c1.4,0.3,1.8,1.3,1.8,2.5
		c0,0.5,0.1,1.1,0.6,1.2c1.6,0.1,1.3,1.2,1.3,2.2c0,0.6,0,1.3,0.7,1.5c1,0.3,1.1,1,1,1.8c0,0.4-0.1,0.9,0.1,1.2
		c1,1.2,0.3,2.9,1.3,4.1c0.2,0.2,0.2,0.8-0.2,1c-0.5,0.2-0.5-0.3-0.7-0.6c-0.2-0.3-0.2-0.7-0.6-0.9c-0.3-0.1-0.8-0.3-0.7,0.3
		c0.1,0.8-0.1,1.8,1.2,2.1c0.4,0.1,0.7,0.4,0.6,0.9c-0.1,0.3-0.2,0.6-0.3,0.9c0,0,0,0,0,0c-0.4,0.1-0.6,0.3-0.7,0.7c0,0,0,0,0,0
		c-0.3,0-0.4,0.2-0.4,0.5c-0.3,0.4-0.6,0.8-1,1C285.8,272.2,285.4,272.5,285.4,273.1z"/>
	<path class="st1" d="M152.1,232c0-0.2-0.1-0.5-0.1-0.7c0.3-0.4,0.2-0.9,0.1-1.4c-0.6-2.5-0.6-5-0.9-7.5c0.6-0.1,0.7,0.3,0.7,0.8
		c0,0.6,0.1,1.2,0.5,1.8c0.5-0.9,1.1-1.6,1.3-2.4c0.3-0.9,0.8-1.3,1.6-1.8c0.9-0.5,1.8-1.1,2-2.2c0.1-0.7,0.5-1.2,1-1.7
		c2.5-2.5,5.1-5.1,7.6-7.6c2.4-2.4,4.7-4.8,7.1-7.1c1-0.9,2-1.7,2.4-3.1c0.1-0.4,0.4-0.6,0.8-0.8c0.7-0.3,1.4-0.2,2.1-0.2
		c0.4,0,0.9,0,1-0.5c0.3-1.8,1.5-2,2.9-1.9c0.6,0,0.9-0.1,1-0.8c0.2-1,1.3-1.8,2.2-1.6c0.7,0.2,0.9,0,0.9-0.7c0-0.9,0.4-1.7,1.2-1.6
		c1.8,0.2,3.4-0.8,5.1-0.8c0.5,0,0.8-0.2,0.9-0.8c0.3-1.8,1-2.4,2.8-2.4c0.6,0,1.2-0.1,1.7-0.5c0.5-0.4,1.1-0.5,1.7-0.5
		c0.3,0,0.7,0.1,0.9-0.1c1.3-0.9,2.7-1.3,4.3-1.4c0.6,0,1.1-0.4,1.3-0.9c0.3-0.6,0.7-0.8,1.4-0.7c1.3,0.1,2.5-0.6,3.6-1
		c0.6-0.2,1.1,0.3,1.6-0.1c1.4-1.1,3.1-0.7,4.7-0.8c0.8,0,1.8,0.3,2.5-0.2c1.7-1.2,3.6-1,5.4-1.2c4-0.3,8.1-0.1,12.1-0.1
		c0.4,0,0.7,0,1,0.2c1.3,1.1,2.7,1,4.3,0.6c1-0.3,2.2-0.6,3,0.6c0.5,0.7,1.2,0.9,2.2,1c1.9,0.1,3.9-0.3,5.5,1.2
		c0.1,0.1,0.5,0.2,0.7,0.2c1.5-0.1,2.9,0.2,4.4,0.2c0.6,0,1,0.1,1.4,0.7c0.7,1,1.6,1.8,3,1.5c0.3-0.1,0.7,0,0.9,0.3
		c0.6,1,1.5,1,2.4,0.9c0.8-0.1,1.5,0.1,1.9,0.9c0.3,0.6,0.8,0.5,1.4,0.5c0.4,0,1-0.1,1.1,0.5c0.3,1.6,1.6,1.7,2.8,1.9
		c0.8,0.1,1.3,0.3,1.8,1c0.9,1.4,2.5,1.8,3.9,2c1.4,0.2,3.2,1.2,3.4,2.7c0.1,1.1,0.7,1.4,1.7,1.5c0.7,0,1.4,0,1.8,0.5
		c0.9,1.2,2.1,2,3,3.1c0.8,0.9,1.5,1.8,2.6,2.4c0.8,0.5,1.5,1.1,1.8,2c0.3,0.8,0.8,1.3,1.5,1.6c1,0.5,1.8,1.2,2.3,2.3
		c0.2,0.5,0.7,0.9,1.3,1.1c1.1,0.4,1.8,1.1,2.2,2.2c0.2,0.7,0.6,1.3,1.2,1.6c2,1,2.7,3.3,4.4,4.6c0.3,0.3,0.5,0.8,0.4,1.3
		c-0.1,1,0.6,1.5,1,2.2c0.5,1.1,1.4,0.6,2.1,0.6c-0.1,1.1-0.2,2.2-0.3,3.4c-0.5,0.1-0.5,0.4-0.2,0.7c-0.3,1-0.4,2.1-0.6,3.1
		c-0.5,2.8-1.2,5.5-2.1,8.1c-1.1,0.2-1.9,1.4-3.4,0.8c-1.7-0.6-1.8-0.3-1.9-2.3c0-0.4,0.1-1-0.4-1.1c-1.4-0.2-1.2-1.2-1.2-2.2
		c0-1.7,0-1.8-1.7-1.8c-1,0-1.5-0.5-1.4-1.3c0.2-1.5-0.5-2.4-1.7-3.2c-1-0.6-1-1.7-0.1-2.4c0.5-0.4,0.7-0.6,0.2-1.1
		c-0.4-0.4-0.9-0.6-1.3,0c-0.2,0.3-0.4,0.6-0.9,0.4c-0.4-0.2-0.6-0.5-0.6-1c0-0.6,0-1.1,0-1.7c-0.1-1.4-1-2.1-2.3-1.9
		c-0.8,0.1-2.3-1.2-2.2-2c0.2-1.7-0.7-2.6-2.4-2.5c-0.5,0-1,0.1-1.4-0.1c-0.6-0.3-1.1-0.5-0.2-1.1c0.6-0.4,0.6-0.9,0.1-1.3
		c-0.5-0.6-0.9-0.3-1.2,0.2c-0.4,0.6-1.1,0.6-1.6,0.2c-0.6-0.4-1.2-1-1.5-1.7c-0.4-0.9-1-1.1-1.9-1c-0.5,0-1.1,0.2-1.5-0.5
		c-0.5-1-0.8-2.2-0.8-3.2c0.1-1.2-0.5-1.4-1.3-1.5c-1.6-0.2-3.1-1.1-4.9-0.8c-0.2,0-0.4-0.1-0.5-0.2c-0.7-0.8-1.6-0.8-2.5-0.8
		c-0.9,0.1-1.3-0.2-1.3-1.2c0-1-0.5-1.6-1.7-1.5c-0.6,0.1-1.4,0.2-1.8-0.4c-0.7-0.8-1.6-0.9-2.6-0.8c-1,0.1-1.6-0.3-1.6-1.4
		c0-0.8-0.3-1.2-1.1-1.2c-1.5-0.1-3-0.2-4.5-0.2c-1.4,0-1.7-0.2-1.8-1.7c0-0.5-0.1-1-0.8-1c-2.5-0.1-4.9,0.2-7.2,1
		c-1.4,0.5-2.3,0.2-2.8-1.3c-0.2-0.5-0.6-0.7-1.1-0.7c-4.2,0-8.5,0-12.7,0c-0.6,0-1.1,0.3-1.1,0.8c-0.1,1.3-0.9,1.4-2,1.3
		c-0.6,0-1.2,0-1.8,0c-1-0.1-2.1,0.2-3.1-0.2c-2.2-0.8-4.4-1.1-6.7-1c-0.8,0-1.2,0.5-0.7,1.2c0.4,0.7,0,0.9-0.3,1.3
		c-0.7,0.6-1.6,0.4-2.4,0.4c-0.5,0-1,0-1.3,0.6c-0.6,1.2-2,1.5-3.2,0.8c-1.1-0.7-2.3-0.4-3.4-0.4c-0.3,0-0.8,0.4-0.7,0.7
		c0.3,0.7-0.1,1.3-0.1,2c0,1.7-1.6,2.6-2.9,1.6c-0.9-0.7-1.8-0.7-2.8-0.7c-0.6,0-1.2,0-1.4,0.6c-0.3,0.7,0.6,0.7,0.8,1.1
		c-0.5,0.4-0.8,0.8-0.9,1.5c-0.2,1.6-0.8,2-2.4,2.1c-0.4,0-1-0.2-1.2,0.3c-0.5,1-1.3,0.9-2.1,0.9c-0.4,0-0.9-0.1-1.2,0.2
		c-0.8,0.8-1.8,0.8-2.8,0.8c-0.4,0-1.3,0.1-1.2,0.5c0.3,1-0.6,1.6-0.4,2.5c0.1,0.4,0,0.7-0.3,1c-1.4,1.4-2.9,2.8-4.3,4.2
		c-2,2-3.8,4.1-6.1,5.9c-0.2,0.2-0.3,0.4-0.4,0.7c-0.3,1-0.8,1.8-1.6,2.5c-0.4,0.3-0.7,1.2-1.2,1c-0.7-0.2-0.2-1.1-0.3-1.6
		c0-0.2,0-0.3-0.1-0.5c-0.1-0.3-0.3-0.6-0.7-0.6c-0.3,0-0.5,0.3-0.5,0.6c0.1,1.4-0.2,2.7-1.1,3.8c-0.3,0.3,0,1.1-0.1,1.6
		c0,0.4-0.1,0.9-0.6,1c-0.5,0.1-0.6-0.3-0.8-0.6c-0.2-0.3-0.4-0.7-0.8-0.5c-0.4,0.2-0.5,0.6-0.6,1c-0.1,0.4,0.1,0.6,0.5,0.7
		c0.8,0.2,1.2,0.8,1.2,1.6c0,0.9-0.7,1.5-1.4,1.5c-1.8,0-1.8,1.1-1.7,2.4c0,0.5-0.2,0.9-0.5,1.3c-0.2,0.3-0.5,0.4-0.8,0.2
		c-1.3-0.9-1.4,0.4-1.7,1c-0.2,0.4-0.1,1-0.8,1.1c-0.1-0.5-0.2-0.9-0.3-1.4c0-0.3-0.1-0.5-0.4-0.5c-0.2-1.7-1.1-3.3-1-5
		c0-0.3-0.1-0.5-0.4-0.5C152.5,234,152.9,232.9,152.1,232z M152.9,229.4c0.7-0.7,0.7-1.4,0.7-2c0-0.2-0.1-0.5-0.4-0.5
		c-0.3,0-0.3,0.3-0.3,0.5C152.9,227.9,152.9,228.5,152.9,229.4z"/>
	<path class="st2" d="M187.2,282.3c0.3-0.3,0.6-0.6,0.4-1.1c-0.4-1-0.1-2.1-0.2-3.2c0-0.6,0.4-0.8,0.9-1c1-0.3,1.4-0.9,1.3-1.9
		c0-0.7,0-1.3,0.6-1.7c0.3-0.2,0.4-0.6,0.4-1c-0.2-1.4,0.4-2.7,1.1-3.8c0.5-0.9,1.2-1.8,1.1-3c0-0.6,0.6-0.9,1.2-1.1
		c0.5-0.2,0.9-0.4,1-0.9c0.1-1.2,0.9-2,1.5-2.9c0-0.1,0.1-0.1,0.1-0.2c0.4-2.5,2.9-3.1,4.1-4.9c0.6-0.9,1.3-1.5,2.2-2.1
		c1.1-0.8,2.4-1.7,3-3.1c0.2-0.6,0.7-0.6,1.2-0.6c2.1,0.1,3.5-0.9,4.4-2.8c0.4-0.9,1-1.2,1.8-1c1.6,0.4,3,0.3,4.1-1
		c0.2-0.2,0.6-0.4,1-0.5c1-0.3,2.1-0.2,2.8-1.1c0.1-0.2,0.6-0.1,0.9-0.1c0.8,0,1.6,0.1,2.2-0.6c0.3-0.3,0.7-0.3,1.1-0.3
		c3,0,6-0.2,9,0.1c1.7,0.1,3.4,0.1,5.2,0.6c2.1,0.6,4.2,1.2,6,2.5c0.8,0.5,1.8,0.8,2.9,0.7c0.8-0.1,1.2,0.2,1.6,0.9
		c0.7,1,1.7,1.7,2.7,2.5c0.2,0.1,0.4,0.2,0.7,0.1c1.3-0.4,1.7,0.3,1.9,1.4c0.2,1.1,1,1.8,2,2c1,0.2,1.5,0.7,1.8,1.5
		c0.2,0.6,0.6,1.1,1,1.3c1.2,0.4,1.9,1.2,2.6,2.1c0.2,0.2,0.4,0.4,0.5,0.8c0,0.8,0.6,1.2,1.3,1.4c1.1,0.3,1.5,1,1.4,2.2
		c-0.1,0.8,0.2,1.4,0.8,1.9c0.7,0.6,1.3,1.3,1.3,2.3c0,0.5,0.3,0.7,0.7,0.9c0.7,0.4,1.2,1,1.3,1.8c0.2,1.5,1.4,2.6,1.6,4
		c0,0.3,0.3,0.4,0.5,0.5c0.5,0.1,0.7,0.5,0.6,1c-0.1,0.9,0.2,1.7,0.6,2.4c0.3,0.5,0.4,1.1,0.4,1.7c0,0.7-0.2,1.4,0.2,2.1
		c-0.2,0.3-0.3,0.6-0.5,0.9l-0.1,0.1c0,0-0.1,0-0.1,0c-0.5-0.1-1,0-1,0.7c-0.1,0-0.2,0-0.4,0.1c-0.5-0.1-0.8,0.1-0.8,0.6
		c-0.1,0-0.2,0.1-0.4,0.1c-0.3,0-0.6,0.1-0.6,0.4c-0.2,0.2-0.4,0.3-0.6,0.3c-0.9,0.1-1.7,0.4-2.2,1.2l-0.1,0c0,0-0.1,0-0.1,0
		c-0.5,0.1-1.1,0-1.3,0.7l-0.1,0.1c0,0-0.1,0-0.1,0c-0.6,0-1.3-0.1-1.5,0.7c-0.1,0-0.2,0-0.3,0c-0.5,0.1-1.1,0-1.3,0.7l-0.1,0
		c0,0-0.1,0-0.1,0c-0.3,0-0.6-0.1-0.8,0c-1.5,0.5-3,1.1-4.4,1.7c-0.5,0.2-1.1,0.6-1.4,0.2c-0.7-0.7-0.9-0.3-1.2,0.2
		c-0.2,0.3-0.5,0.5-0.9,0.5c-0.4-0.1-0.5-0.5-0.6-0.8c0-0.4-0.1-0.8-0.5-1c-0.7-0.2-0.7-0.8-0.7-1.4c0-0.7,0.3-1.6-0.3-2.2
		c-0.7-0.6-0.7-1.4-0.7-2.2c0-0.7,0.1-1.6-0.8-1.9c-0.8-0.3-0.9-0.8-0.9-1.5c0.1-1-0.3-1.7-1-2.4c-1.5-1.7-3.1-3.3-4.8-4.8
		c-1.2-1.1-1.8-2.7-3.9-2.3c-0.1,0-0.2,0-0.2-0.1c-1.4-1.3-3.4-0.8-5.1-1.6c-1.6-0.7-3.8-0.1-5.7-0.1c-2.2,0-4.2,0.7-6.4,0.9
		c-0.9,0.1-1.8,0.3-2,1.4c-0.1,0.3-0.4,0.6-0.6,0.9c-1.8,1.9-3.9,3.6-5.6,5.6c-0.1,0.1-0.2,0.3-0.4,0.3c-1.2,0.2-1.3,1.2-1.4,2.1
		c-0.1,1-0.4,1.5-1.4,1.8c-0.6,0.2-0.7,0.8-0.6,1.4c0,0.8-0.1,1.5-0.9,2c-0.4,0.2-0.6,0.7-0.6,1.1c0,0.8-0.1,1.5,0.1,2.3
		c0.2,0.7-0.1,0.9-0.6,1c-0.4,0.1-0.8,0.2-1.2,0.3c-0.4,0.1-0.5,0.2-0.3,0.5c0.5,0.8,0.2,0.9-0.6,0.7c-0.5-0.1-0.9,0-1.4-0.4
		c-0.3-0.2-0.6-0.2-0.7,0.3c-0.4-0.1-0.8-0.2-1.2-0.4c-0.7-0.3-1.2-1-2-0.7c-0.1,0-0.3,0-0.4-0.1c-0.7-0.6-1.5-0.8-2.4-0.8
		c-0.2,0-0.4,0-0.5-0.2c-0.1-0.3-0.1-0.5-0.5-0.2c-0.2-0.1-0.5-0.1-0.7-0.2c-0.2-0.6-0.7-0.7-1.3-0.6c-0.4,0-0.8-0.1-1.1-0.4
		c-0.1-0.3-0.3-0.4-0.6-0.3c-0.4,0-0.6-0.2-0.9-0.4c-1.2-1-2.7-1.5-4-2.3C188.2,283.1,187.5,283,187.2,282.3z"/>
	<path class="st3" d="M155,242.4c0.6-0.1,0.5-0.7,0.8-1.1c0.4-0.6,0.4-1.9,1.7-1c0.3,0.2,0.6,0,0.8-0.2c0.3-0.4,0.6-0.8,0.5-1.3
		c-0.1-1.3-0.1-2.4,1.7-2.4c0.7,0,1.4-0.6,1.4-1.5c0-0.8-0.4-1.4-1.2-1.6c-0.4-0.1-0.6-0.3-0.5-0.7c0.1-0.4,0.2-0.8,0.6-1
		c0.4-0.2,0.6,0.2,0.8,0.5c0.2,0.3,0.3,0.7,0.8,0.6c0.5-0.1,0.6-0.6,0.6-1c0-0.6-0.2-1.3,0.1-1.6c0.9-1.1,1.2-2.4,1.1-3.8
		c0-0.2,0.2-0.6,0.5-0.6c0.4,0,0.5,0.3,0.7,0.6c0.1,0.1,0,0.3,0.1,0.5c0.1,0.6-0.3,1.4,0.3,1.6c0.5,0.2,0.8-0.7,1.2-1
		c0.8-0.6,1.3-1.5,1.6-2.5c0.1-0.3,0.2-0.5,0.4-0.7c2.2-1.8,4.1-3.9,6.1-5.9c1.4-1.4,2.8-2.8,4.3-4.2c0.3-0.3,0.4-0.6,0.3-1
		c-0.2-0.9,0.7-1.6,0.4-2.5c-0.1-0.4,0.7-0.5,1.2-0.5c1,0,2,0,2.8-0.8c0.3-0.3,0.8-0.2,1.2-0.2c0.9,0,1.7,0.1,2.1-0.9
		c0.2-0.5,0.8-0.3,1.2-0.3c1.6,0,2.2-0.5,2.4-2.1c0.1-0.7,0.4-1.1,0.9-1.5c-0.2-0.5-1.1-0.4-0.8-1.1c0.3-0.6,0.8-0.6,1.4-0.6
		c1,0,1.9,0.1,2.8,0.7c1.3,1,2.9,0.1,2.9-1.6c0-0.7,0.4-1.3,0.1-2c-0.1-0.4,0.3-0.7,0.7-0.7c1.1,0,2.3-0.3,3.4,0.4
		c1.2,0.7,2.6,0.4,3.2-0.8c0.3-0.6,0.8-0.6,1.3-0.6c0.8,0,1.7,0.2,2.4-0.4c0.4-0.3,0.8-0.6,0.3-1.3c-0.4-0.7-0.1-1.1,0.7-1.2
		c2.3,0,4.6,0.2,6.7,1c1,0.4,2.1,0.1,3.1,0.2c0.6,0,1.2,0,1.8,0c1,0.1,1.8-0.1,2-1.3c0.1-0.6,0.5-0.8,1.1-0.8c4.2,0,8.5,0,12.7,0
		c0.5,0,0.9,0.2,1.1,0.7c0.6,1.5,1.5,1.8,2.8,1.3c2.3-0.8,4.8-1.1,7.2-1c0.6,0,0.7,0.4,0.8,1c0.1,1.4,0.4,1.6,1.8,1.7
		c1.5,0.1,3,0.2,4.5,0.2c0.8,0,1.2,0.5,1.1,1.2c-0.1,1.1,0.5,1.5,1.6,1.4c1-0.1,1.9,0,2.6,0.8c0.4,0.5,1.2,0.4,1.8,0.4
		c1.2-0.2,1.7,0.4,1.7,1.5c0,1,0.4,1.3,1.3,1.2c0.9-0.1,1.8,0,2.5,0.8c0.1,0.1,0.4,0.2,0.5,0.2c1.7-0.4,3.2,0.6,4.9,0.8
		c0.8,0.1,1.4,0.3,1.3,1.5c-0.1,1,0.2,2.2,0.8,3.2c0.3,0.7,0.9,0.6,1.5,0.5c0.9-0.1,1.5,0.1,1.9,1c0.3,0.6,0.9,1.2,1.5,1.7
		c0.5,0.4,1.2,0.4,1.6-0.2c0.4-0.5,0.7-0.8,1.2-0.2c0.4,0.5,0.4,0.9-0.1,1.3c-0.9,0.6-0.3,0.9,0.2,1.1c0.5,0.2,1,0.1,1.4,0.1
		c1.7-0.2,2.6,0.7,2.4,2.5c-0.1,0.9,1.4,2.2,2.2,2c1.3-0.2,2.2,0.5,2.3,1.9c0,0.6,0,1.1,0,1.7c0,0.5,0.2,0.8,0.6,1
		c0.4,0.2,0.7-0.1,0.9-0.4c0.4-0.7,0.8-0.4,1.3,0c0.5,0.5,0.3,0.7-0.2,1.1c-0.9,0.6-0.9,1.8,0.1,2.4c1.2,0.8,1.9,1.7,1.7,3.2
		c-0.1,0.9,0.4,1.3,1.4,1.3c1.7,0,1.7,0,1.7,1.8c0,1-0.2,2,1.2,2.2c0.5,0.1,0.4,0.7,0.4,1.1c0,2,0.2,1.6,1.9,2.3
		c1.5,0.6,2.3-0.6,3.4-0.8c-0.5,1.6-1.1,3.2-1.7,4.8c-0.4,0.9-1.1,1.8-0.9,2.9c0,0.1,0,0.1,0,0.2c-0.5,0-0.5,0.4-0.7,0.7
		c-0.5,1.2-1.1,2.3-1.8,3.4c-0.3,0.5-0.5,1-0.4,1.6c0,0,0,0,0,0c-0.5,0.1-0.5,0.4-0.4,0.8c0,0.1,0,0.1-0.1,0.2c-1,0.2-1,1.2-1.4,1.9
		c-1.4-0.8-1.4-2.2-1.6-3.5c-0.1-0.5,0.1-0.8-0.6-0.9c-0.9-0.2-1.5-0.7-1.4-1.8c0.1-0.6,0-1.1-0.4-1.6c-0.4-0.4-0.5-0.9-0.6-1.5
		c-0.1-1.2-0.9-2.4-1.8-2.5c-1.2-0.2-1.6-0.8-1.6-1.9c0.1-1.5-0.3-1.8-1.9-1.9c-2.1-0.2-2.1-0.2-2.5-2.2c0-0.1-0.1-0.2-0.1-0.3
		c-0.1-0.6-0.1-1.1,0.6-1.3c0.6-0.2,0.5-0.5,0.2-0.9c-0.3-0.3-0.5-0.6-0.9-0.8c-1.6-0.9-2.7-2.3-3.5-3.9c-1.2-2.3-3.2-4-5.2-5.4
		c-1.8-1.3-3.8-2.1-4.8-4.2c-0.3-0.7-1-1-1.2,0.2c-0.1,0.4-0.3,0.5-0.7,0.6c-1.8,0.3-2.9-0.5-2.9-2.4c0-0.2,0-0.3,0-0.5
		c-0.1-1.5-1-2.4-2.5-2.4c-0.6,0-1.2,0-1.5-0.7c-0.9-1.9-1.9-2.4-3.9-1.6c-0.5,0.2-1,0.1-1.5,0.1c-2.2,0-2.2,0-2.3-2.2
		c0-0.6-0.1-1.6-0.8-1.6c-1.3,0-2.5-0.5-3.7-0.8c-0.8-0.1-1.6-0.2-2.4,0.1c-1,0.5-2,0.3-3.1,0.3c-0.7,0-1.2-0.7-1.1-1.3
		c0.2-1.1-0.4-1-1.1-1c-0.7-0.1-1.6,0.3-2.2-0.4c-0.4-0.5-1-0.6-1.6-0.6c-6.4,0-12.9,0-19.3,0c-0.4,0-0.9-0.1-1.3,0.2
		c-0.6,0.5-1.2,0.6-1.9,0.5c-1.3-0.2-1.9,0.6-2,1.7c-0.1,0.9-0.6,0.9-1.3,1c-1.2,0.2-2.3-0.4-3.5-0.5c-1.2-0.1-2.3,0.5-3.5,0.5
		c-2.7,0-2.7,0.1-2.8,2.8c0,0.2,0,0.3,0,0.5c0,0.5-0.3,0.8-0.8,0.8c-1.1,0-2.2,0.1-3.3-0.4c-1.4-0.7-2.4-0.2-2.8,1.3
		c-0.1,0.3-0.2,0.7-0.3,1c-0.1,0.8-0.3,1.5-1.3,1.5c-0.8-0.1-1.9,0.4-2.3-0.3c-0.8-1.3-1.1-0.7-1.7,0.1c-0.2,0.2-0.4,0.4-0.7,0.5
		c-0.7,0.2-1,0.6-1.1,1.4c-0.1,0.8-0.7,1.3-1.6,1.3c-0.5,0-1,0-1.4,0c-0.3,0-0.7,0.2-0.6,0.4c0.4,1.1-0.5,1.9-0.4,2.9
		c0.1,0.7-0.3,1-1,1c-2.7,0.1-2.3,0.4-2.6,2.6c-0.1,1-0.4,1.3-1.4,1.3c-1.9,0-2.2,0.4-2.3,2.3c0,0.2,0,0.3,0,0.5
		c0,0.6-0.3,0.9-0.9,1c-0.4,0.1-0.9,0.2-1.3,0.3c-1.8,0.4-1.8,0.4-1.8,2.2c0,0.4,0,1.1-0.5,1c-1.7-0.2-2.7,0.6-3.1,2.1
		c0,0.1-0.2,0.2-0.3,0.3c-0.6,0.6-1.2,1.2-1.7,2c-0.2,0.4-0.5,1-1.3,0.6c-0.6-0.4-0.5,0.3-0.5,0.6c0,0.7,0.2,1.4-0.3,2
		c-0.6,0.7-0.7,1.4-0.6,2.2c0.1,0.7-0.2,1.1-0.9,1.3c-1.2,0.4-2.1,1.1-1.8,2.6c0.1,0.6-0.2,1.1-0.6,1.6c-0.6,0.8-0.6,2.2,0.1,2.9
		c0.2,0.3,0.7,0.5,0.3,0.8c-0.4,0.4-0.6,0-0.8-0.3c-0.2-0.3-0.5-0.6-0.9-0.3c-0.4,0.2-0.3,0.6-0.2,1c0.1,0.2,0.5,0.4,0.2,0.8
		c-0.6-0.3-1.2-0.5-1.9-0.5c0-0.2,0-0.3,0-0.5c0.5-0.7,0.1-0.9-0.5-1c-0.4,0-0.4-0.3-0.5-0.6C158,250.4,156.4,246.4,155,242.4z"/>
	<path class="st4" d="M161.1,256.1c0.7-0.1,1.3,0.1,1.9,0.5c0.3-0.4-0.1-0.6-0.2-0.8c-0.1-0.4-0.1-0.7,0.2-1c0.4-0.3,0.7,0,0.9,0.3
		c0.2,0.3,0.5,0.7,0.8,0.3c0.4-0.4-0.1-0.6-0.3-0.8c-0.6-0.7-0.7-2.1-0.1-2.9c0.4-0.5,0.7-1,0.6-1.6c-0.3-1.5,0.6-2.2,1.8-2.6
		c0.7-0.2,0.9-0.6,0.9-1.3c-0.1-0.8,0-1.6,0.6-2.2c0.5-0.5,0.3-1.3,0.3-2c0-0.3-0.1-0.9,0.5-0.6c0.8,0.5,1.1-0.2,1.3-0.6
		c0.4-0.8,1-1.4,1.7-2c0.1-0.1,0.3-0.2,0.3-0.3c0.5-1.6,1.4-2.4,3.1-2.1c0.5,0.1,0.5-0.6,0.5-1c0.1-1.8,0.1-1.8,1.8-2.2
		c0.4-0.1,0.9-0.2,1.3-0.3c0.6-0.1,0.9-0.4,0.9-1c0-0.2,0-0.3,0-0.5c0.1-1.9,0.4-2.3,2.3-2.3c1,0,1.2-0.3,1.4-1.3
		c0.3-2.2-0.1-2.5,2.6-2.6c0.7,0,1.1-0.3,1-1c-0.1-1,0.7-1.9,0.4-2.9c-0.1-0.3,0.3-0.4,0.6-0.4c0.5,0,1,0,1.4,0
		c0.9,0.1,1.5-0.4,1.6-1.3c0.1-0.7,0.4-1.1,1.1-1.4c0.3-0.1,0.5-0.3,0.7-0.5c0.5-0.7,0.9-1.4,1.7-0.1c0.4,0.7,1.5,0.2,2.3,0.3
		c1,0.1,1.2-0.6,1.3-1.5c0-0.4,0.2-0.7,0.3-1c0.4-1.5,1.4-2,2.8-1.3c1.1,0.6,2.2,0.4,3.3,0.4c0.5,0,0.8-0.3,0.8-0.8
		c0-0.2,0-0.3,0-0.5c0-2.7,0.1-2.8,2.8-2.8c1.2,0,2.3-0.6,3.5-0.5c1.2,0.1,2.3,0.7,3.5,0.5c0.7-0.1,1.2-0.1,1.3-1
		c0.1-1.1,0.7-1.9,2-1.7c0.7,0.1,1.4,0,1.9-0.5c0.4-0.3,0.8-0.2,1.3-0.2c6.4,0,12.9,0,19.3,0c0.6,0,1.2,0.1,1.6,0.6
		c0.6,0.7,1.4,0.3,2.2,0.4c0.7,0,1.3-0.1,1.1,1c-0.1,0.6,0.3,1.3,1.1,1.3c1,0,2.1,0.2,3.1-0.3c0.8-0.4,1.6-0.3,2.4-0.1
		c1.2,0.2,2.4,0.8,3.7,0.8c0.7,0,0.7,1,0.8,1.6c0.2,2.2,0.1,2.2,2.3,2.2c0.5,0,1,0.1,1.5-0.1c1.9-0.7,3-0.3,3.9,1.6
		c0.3,0.7,0.9,0.7,1.5,0.7c1.5,0,2.4,0.9,2.5,2.4c0,0.2,0,0.3,0,0.5c0.1,1.9,1.1,2.7,2.9,2.4c0.4-0.1,0.6-0.2,0.7-0.6
		c0.2-1.2,0.9-0.9,1.2-0.2c1,2.2,3.1,3,4.8,4.2c2,1.5,4,3.1,5.2,5.4c0.8,1.5,1.9,3,3.5,3.9c0.3,0.2,0.6,0.5,0.9,0.8
		c0.3,0.4,0.4,0.7-0.2,0.9c-0.7,0.2-0.8,0.7-0.6,1.3c0,0.1,0.1,0.2,0.1,0.3c0.4,2,0.4,2,2.5,2.2c1.6,0.1,1.9,0.4,1.9,1.9
		c-0.1,1.2,0.4,1.8,1.6,1.9c0.9,0.1,1.7,1.3,1.8,2.5c0,0.6,0.1,1.1,0.6,1.5c0.4,0.4,0.5,1,0.4,1.6c-0.2,1.1,0.5,1.6,1.4,1.8
		c0.7,0.1,0.6,0.4,0.6,0.9c0.2,1.3,0.2,2.7,1.6,3.5c-0.5,1.1-1.4,1.9-1.7,3.1c0,0,0,0,0,0c-1.1,1.1-2,2.2-2.6,3.6
		c0,0.1-0.1,0.1-0.1,0.2c-0.9,0.5-1.5,1.2-1.8,2.2c-0.7-0.1-0.7,0.8-1.2,0.9c-0.1,0.1-0.3,0.1-0.4,0.2c-0.1,0.2,0.1,0.2,0.3,0.3
		c0,0.1,0,0.1,0,0.2c-0.1,0.4-0.4,0.5-0.7,0.8c-0.6,0-0.7,0.4-0.7,0.9c0,0,0,0,0,0c-0.4,0-0.7,0.1-0.6,0.6c0,0.1,0,0.1-0.1,0.1
		c-0.2,0-0.5,0-0.7,0c0.1-0.5-0.2-0.8-0.6-0.9c-1.2-0.2-1.1-1.3-1.2-2.1c-0.1-0.6,0.4-0.4,0.7-0.3c0.3,0.2,0.4,0.6,0.6,0.9
		c0.2,0.3,0.2,0.8,0.7,0.6c0.4-0.2,0.3-0.8,0.2-1c-1-1.2-0.3-2.9-1.3-4.1c-0.2-0.2-0.1-0.8-0.1-1.2c0.1-0.8,0-1.5-1-1.8
		c-0.7-0.2-0.7-0.9-0.7-1.5c0-1,0.2-2.1-1.3-2.2c-0.5,0-0.6-0.7-0.6-1.2c0-1.3-0.4-2.2-1.8-2.5c-1-0.2-1.1-1.1-1.1-1.9
		c0-0.8,0.1-1.4-1-1.7c-1-0.2-0.6-1.2-0.7-1.9c-0.1-0.6,0.4-1.6-1-0.9c-0.5,0.3-0.9-0.3-0.9-0.9c0-1.6-1.2-2.6-2.7-2.5
		c-0.7,0.1-1-0.6-1-1.3c0-1.1-1.2-2.6-2.3-2.6c-1,0-1.5-0.3-1.3-1.4c0.1-0.6-1.6-2.3-2.3-2.4c-0.5-0.1-1,0.2-1.3-0.4
		c-0.3-0.6,0.3-0.8,0.6-1.1c0.5-0.5,0.1-0.8-0.4-0.9c-0.6-0.1-1.1,0-1.7,0c-0.7,0-1.4,0-1.7-0.9c-0.2-0.7-1.1-0.5-1.7-0.5
		c-1.1,0-2,0-2-1.5c0-0.6-0.6-0.9-1.2-0.9c-1.2-0.1-2.3-0.2-2.1-1.9c0.1-0.6-0.4-0.7-0.9-0.7c-1.2,0-2.3,0.2-3.1-1
		c-0.1-0.1-0.2-0.2-0.3-0.2c-1.7,0.4-3.2-0.8-4.8-0.8c-1.2,0-2.2-0.4-2.4-1.8c-0.1-0.4-0.4-0.3-0.7-0.3c-2.3-0.2-4.5-0.2-6.8-0.3
		c-3.3,0-6.7-0.3-10-0.2c-3.1,0.1-6.1,0.4-9.2,0.3c-0.3,0-0.7,0-0.9,0.3c-0.6,1.1-1.6,1-2.6,0.9c-0.6,0-1,0.1-1.5,0.6
		c-0.5,0.6-1.3,0.7-2.1,0.6c-0.7-0.1-1.2,0-1.5,0.8c-0.3,0.9-1.1,0.8-1.9,0.8c-0.8,0-1.6-0.1-1.7,1.1c0,0.8-0.9,0.8-1.5,0.8
		c-0.9,0-2-0.4-2.5,1c-0.2,0.4-0.9,0.2-1.3,0.2c-0.4,0-0.8,0-1.2,0c-0.3,0-0.6,0.1-0.7,0.4c-0.1,0.3,0.1,0.4,0.3,0.6
		c0.4,0.2,0.7,0.5,0.4,1c-0.3,0.4-0.8,0.7-1.2,0.4c-0.7-0.5-1.1-0.2-1.5,0.3c-0.8,0.9-1.8,1.6-1.9,2.9c0,0.6-0.6,0.7-1.1,0.8
		c-1.9,0.3-1.9,0.3-2.2,2.2c-0.1,0.5-0.3,0.8-0.8,0.7c-1.1-0.2-1.6,0.7-2.5,1.1c-0.4,0.2-0.3,0.7-0.4,1.1c-0.1,0.8-0.3,1.5-1.4,1.6
		c-1,0.1-1.7,0.9-1.7,2c0,1-0.4,1.3-1.3,1.5c-1.4,0.3-2.5,2-2.4,3.4c0.1,0.8-0.5,0.9-1,1.1c-0.3,0.1-0.8,0-0.8,0.3
		c0.1,1.6-1.8,2.4-1.5,4.1c0.2,1.2-0.3,2-1.6,2.1c-1.1,0.1-1.5,0.9-1.4,1.9c0.1,1.6-1.1,2.9-0.8,4.5c0.1,0.5-0.6,0.8-1.2,0.8
		c-0.8,0-0.9,0.4-0.9,1.1c0,1,0,2,0,3c-1.6-0.2-1.6-0.2-1.3,1.4c0.1,0.3,0.1,0.5-0.1,0.7c-0.6-0.3-0.9-1.1-1.6-1.2c0,0,0,0,0,0
		c-0.5-1.1-1.1-2-2.1-2.6c-0.2-0.1-0.3-0.2-0.3-0.4c0-0.8-0.3-1.3-1.1-1.5c0,0,0,0,0,0C164.1,260.8,162.4,258.5,161.1,256.1z"/>
	<path class="st5" d="M308.2,193.2c0,0.1,0,0.3,0,0.4c-0.1,1.2,0.1,2.4,0.4,3.6c0.3,1.6,0.5,3.2,0.5,4.8c0,0.3,0.1,0.5,0.4,0.5
		c-0.2,1.3,0.5,2.5,0.3,3.8c-0.4,0-0.8,0.1-1.1,0.3c-0.6,0.3-2.6,0.2-2.7-0.2c-0.2-0.8-0.8-1.7,0.2-2.5c0.5-0.4,0.6-1.2-0.1-1.7
		c-0.5-0.5-1.1-0.4-1.6,0.2c-0.7,0.8-1.6,0.8-2.2,0.2c-0.6-0.6-0.8-1.5,0.3-2.2c0.7-0.4,0.6-1.1,0-1.6c-0.5-0.5-1.1-0.6-1.6,0.1
		c-0.6,0.7-1.8,0.7-2.3,0.2c-0.5-0.5-0.5-1.8,0.2-2.3c0.7-0.6,0.6-1.2,0-1.8c-0.6-0.6-1.1-0.4-1.6,0.2c-0.6,0.7-1.8,0.8-2.4,0.2
		c-0.5-0.5-0.4-1.6,0.3-2.2c0.5-0.4,0.8-0.9,0.2-1.5c-0.5-0.6-1-0.6-1.5,0c-0.3,0.3-0.4,0.5-0.9,0.5c-1.8-0.3-2.5-1.1-2.1-2.9
		c0.2-0.9-0.3-1.2-1-1.3c-0.5-0.1-1-0.1-1.4,0c-0.7,0-1.1-0.1-1.2-1c0-0.7-0.5-1.4-1.2-1.5c-1.5-0.2-2.9-1.1-4.5-0.9
		c-1.2,0.1-1.7-0.3-1.8-1.6c-0.1-2.5-0.2-2.4-2.7-2.5c-1.2-0.1-2.1,0.7-3.3,0.5c-0.5-0.1-1.2-0.1-1.1-0.7c0.2-0.8-0.3-1.4-0.3-2.1
		c0-1-0.7-1.4-1.6-1.4c-1.4,0-2.8,0-4.2,0.2c-0.7,0.1-1.1,0-1.3-0.9c-0.5-2.3-0.7-2.4-3.2-2.4c-0.4,0-0.8,0.1-1-0.2
		c-0.6-0.9-1.5-0.8-2.4-0.8c-1.1,0-2.2,0-3.2,0c-0.8,0-1.4-0.2-1.6-1.1c-0.2-1-0.9-1.3-1.9-1.3c-1.4,0-2.7,0-4.1,0
		c-0.4,0-0.9,0.1-1.2-0.3c-0.5-0.6-1.1-0.6-1.8-0.6c-1.4,0-2.9,0-4.3,0c-1.5,0-3,0.2-4.4-0.1c-2.7-0.6-5.4-0.4-8.1-0.2
		c-0.5,0-0.9,0.1-0.7-0.7c0.2-1.2-0.3-2.1-1.3-2.7c1.4-2.4,3.1-4.7,4.4-7.2c1.9-3.8,3.6-7.7,4.5-11.9c0.1-0.4,0.2-0.8,0.7-0.9
		c0.1,0.3,0.4,0.5,0.7,0.5c2.2,0,4.4,0.8,6.6,0.5c1.9-0.2,3.8,0.4,5.7,0.2c0.2,0,0.5,0.1,0.7,0.2c0.9,0.7,2,0.8,3.1,0.8
		c1.1,0,2.2,0,3.2,0c0.4,0,0.8,0,0.9,0.5c0.3,1.5,1.5,1.6,2.7,1.6c1.7,0,3.1,1.1,4.8,0.8c0.1,0,0.2,0.1,0.3,0.2
		c0.7,0.7,1.5,0.8,2.4,0.7c0.5,0,1-0.1,1.2,0.5c0.4,0.9,1.1,0.9,1.9,0.9c0.6,0,1.3-0.2,1.7,0.3c0.6,0.7,1.4,0.9,2.2,1
		c0.6,0.1,1.2,0.1,1.8,0.3c0.4,0.1,0.9,0.2,0.4,0.8c-0.5,0.6-0.1,0.9,0.5,1.1c2.4,0.8,5,1.1,7.3,2.1c0.6,0.3,1.3,0.1,1.2,1.2
		c-0.1,0.6,0.6,1.1,1.3,1.3c0.9,0.2,1.9,0.3,2.8,0.6c0.9,0.3,2.2,0.5,2.5,1.4c0.4,1.5,1.4,2.3,2.6,2.9c0.6,0.3,1.1,0.7,1.6,1.2
		c1.1,1.1,2.5,1.5,3.8,2.2c1.2,1.5,1.8,3.3,2.5,5.1c1.2,2.7,2.1,5.5,3,8.3c0.7,2.2,1.5,4.4,1.9,6.7
		C307.3,190.9,307.3,192.2,308.2,193.2z"/>
	<path class="st6" d="M226.1,165.8c1,0.6,1.5,1.5,1.3,2.7c-0.1,0.7,0.2,0.7,0.7,0.7c2.7-0.2,5.4-0.4,8.1,0.2
		c1.4,0.3,2.9,0.1,4.4,0.1c1.4,0,2.9,0,4.3,0c0.7,0,1.4,0,1.8,0.6c0.3,0.4,0.8,0.3,1.2,0.3c1.4,0,2.7,0,4.1,0c1,0,1.6,0.3,1.9,1.3
		c0.2,0.9,0.8,1.1,1.6,1.1c1.1,0,2.2,0,3.2,0c0.9,0,1.8-0.1,2.4,0.8c0.2,0.3,0.7,0.2,1,0.2c2.5,0.1,2.7,0.1,3.2,2.4
		c0.2,0.9,0.6,1.1,1.3,0.9c1.4-0.3,2.8-0.2,4.2-0.2c0.9,0,1.6,0.3,1.6,1.4c0,0.7,0.5,1.3,0.3,2.1c-0.1,0.6,0.6,0.6,1.1,0.7
		c1.1,0.2,2.1-0.6,3.3-0.5c2.5,0.1,2.6,0,2.7,2.5c0.1,1.3,0.6,1.7,1.8,1.6c1.6-0.2,3,0.7,4.5,0.9c0.7,0.1,1.1,0.8,1.2,1.5
		c0,0.8,0.5,1,1.2,1c0.5,0,1-0.1,1.4,0c0.7,0.1,1.1,0.4,1,1.3c-0.3,1.8,0.4,2.6,2.1,2.9c0.4,0.1,0.6-0.2,0.9-0.5
		c0.5-0.6,1-0.6,1.5,0c0.6,0.6,0.3,1.1-0.2,1.5c-0.7,0.5-0.8,1.6-0.3,2.2c0.6,0.6,1.8,0.5,2.4-0.2c0.5-0.6,1-0.8,1.6-0.2
		c0.6,0.6,0.8,1.2,0,1.8c-0.6,0.6-0.7,1.8-0.2,2.3c0.5,0.5,1.8,0.4,2.3-0.2c0.6-0.6,1.1-0.6,1.6-0.1c0.5,0.5,0.6,1.2,0,1.6
		c-1,0.7-0.9,1.6-0.3,2.2c0.6,0.6,1.5,0.6,2.2-0.2c0.5-0.5,1-0.6,1.6-0.2c0.6,0.5,0.6,1.3,0.1,1.7c-1,0.8-0.4,1.7-0.2,2.5
		c0.1,0.5,2.2,0.6,2.7,0.2c0.4-0.2,0.7-0.4,1.1-0.3c0,0.5,0,1,0,1.5c0.1,1,0,2,0.6,2.8c0,0.2,0,0.3,0,0.5c-0.3,2.5-0.3,4.9,0,7.4
		c0,0.6-0.1,1.3-0.1,1.9c-0.5,1.1-0.5,2.2-0.6,3.4c-0.7-0.1-1.6,0.5-2.1-0.6c-0.3-0.7-1.1-1.3-1-2.2c0.1-0.5-0.1-1.1-0.4-1.3
		c-1.7-1.3-2.3-3.6-4.4-4.6c-0.6-0.3-1-0.9-1.2-1.6c-0.3-1.1-1.1-1.8-2.2-2.2c-0.6-0.2-1.1-0.6-1.3-1.1c-0.5-1.1-1.3-1.8-2.3-2.3
		c-0.7-0.3-1.2-0.8-1.5-1.6c-0.3-0.9-1-1.5-1.8-2c-1.1-0.6-1.8-1.5-2.6-2.4c-0.9-1.1-2.2-1.9-3-3.1c-0.4-0.5-1.1-0.5-1.8-0.5
		c-0.9-0.1-1.6-0.4-1.7-1.5c-0.1-1.4-1.9-2.5-3.4-2.7c-1.4-0.2-3-0.6-3.9-2c-0.4-0.7-1-0.9-1.8-1c-1.2-0.2-2.5-0.2-2.8-1.9
		c-0.1-0.6-0.7-0.5-1.1-0.5c-0.5,0-1.1,0-1.4-0.5c-0.4-0.8-1.1-1-1.9-0.9c-0.9,0.1-1.9,0.1-2.4-0.9c-0.2-0.3-0.5-0.4-0.9-0.3
		c-1.4,0.3-2.3-0.5-3-1.5c-0.4-0.6-0.8-0.6-1.4-0.7c-1.5-0.1-2.9-0.3-4.4-0.2c-0.2,0-0.5,0-0.7-0.2c-1.6-1.5-3.6-1.1-5.5-1.2
		c-0.9,0-1.7-0.2-2.2-1c-0.8-1.2-2-0.8-3-0.6c-1.5,0.4-3,0.5-4.3-0.6c-0.3-0.3-0.7-0.2-1-0.2c-4,0-8.1-0.2-12.1,0.1
		c-1.8,0.1-3.7,0-5.4,1.2c-0.7,0.5-1.6,0.1-2.5,0.2c-1.6,0.1-3.3-0.3-4.7,0.8c-0.5,0.4-0.9-0.2-1.6,0.1c-1.1,0.4-2.3,1.2-3.6,1
		c-0.6-0.1-1.1,0.2-1.4,0.7c-0.3,0.5-0.8,0.9-1.3,0.9c-1.6,0-3,0.4-4.3,1.4c-0.2,0.2-0.6,0.1-0.9,0.1c-0.6,0-1.2,0.1-1.7,0.5
		c-0.5,0.4-1.1,0.5-1.7,0.5c-1.8,0-2.5,0.6-2.8,2.4c-0.1,0.5-0.4,0.8-0.9,0.8c-1.7,0-3.3,1-5.1,0.8c-0.8-0.1-1.3,0.8-1.2,1.6
		c0,0.7-0.1,0.9-0.9,0.7c-0.9-0.2-2,0.6-2.2,1.6c-0.1,0.7-0.5,0.8-1,0.8c-1.5-0.1-2.6,0.1-2.9,1.9c-0.1,0.5-0.6,0.5-1,0.5
		c-0.7,0-1.4-0.1-2.1,0.2c-0.4,0.2-0.7,0.4-0.8,0.8c-0.4,1.4-1.4,2.2-2.4,3.1c-2.5,2.3-4.8,4.7-7.1,7.1c-2.5,2.5-5.1,5.1-7.6,7.6
		c-0.5,0.5-0.9,1-1,1.7c-0.2,1.1-1.1,1.7-2,2.2c-0.8,0.4-1.3,0.9-1.6,1.8c-0.3,0.8-0.8,1.5-1.3,2.4c-0.4-0.6-0.6-1.2-0.5-1.8
		c0-0.5-0.1-0.9-0.7-0.8c-0.3-3-0.4-6-0.2-8.9c0.1-2.4,0.2-4.8,0.9-7.2c0.9,0.2,1.6,0.4,1.3-1c-0.2-0.7,0.2-1.3,1.1-1.4
		c0.4,0,0.8-0.2,1-0.6c0.8-1.3,2.2-2,3.1-3.1c0.6-0.7,1.1-1.8,1.9-2.1c2.4-0.9,3-3.5,5.1-4.7c1.2-0.7,2.2-2.1,3.3-3.3
		c0.3-0.4,0.7-0.8,1.2-0.8c0.8,0,1.2-0.4,1.5-1.1c0.4-0.7,0.9-1,1.6-0.2c0.5,0.5,2.1,0.7,2.6,0.4c0.3-0.2,1-2.4,0.8-2.7
		c-0.5-1.1-0.2-1.6,1-1.7c0.4,0,0.9,0,1.3,0c0.7,0,1-0.3,1.2-1c0.3-1.3,0.8-1.6,2.1-1.3c0.5,0.1,1,0.2,1.2-0.3
		c0.4-0.8,1-0.8,1.7-0.7c1.3,0.2,2.2-0.4,2.6-1.6c0.2-0.6,0.5-0.8,1.1-0.8c0.6,0,1.6,0,1.8-0.4c0.6-1.2,1.9-1.3,2.7-2
		c0.3,0.6,0.5,1.1,0.8,1.7c1,2.2,2,4.4,3.5,6.3c0.3,0.3,0.6,0.7,1.1,0.5c1.6-0.6,3.4-1,4.9-1.8c2.9-1.5,6-2.8,8.8-4.6
		c3.4-2.2,6.6-4.6,9.4-7.5c0.2-0.2,0.4-0.4,0.3-0.7c0.7,0.1,0.9-0.5,1.3-0.9C224.2,168,225.1,166.9,226.1,165.8z"/>
	<path class="st7" d="M299.5,169.7c-1.3-0.7-2.7-1.1-3.8-2.2c-0.5-0.5-1-0.9-1.6-1.2c-1.2-0.6-2.2-1.3-2.6-2.9
		c-0.2-0.8-1.5-1.1-2.5-1.4c-0.9-0.3-1.9-0.3-2.8-0.6c-0.7-0.2-1.3-0.7-1.3-1.3c0.1-1.1-0.6-0.9-1.2-1.2c-2.4-1-4.9-1.3-7.3-2.1
		c-0.6-0.2-1-0.5-0.5-1.1c0.5-0.7,0-0.8-0.4-0.8c-0.6-0.1-1.2-0.2-1.8-0.3c-0.9-0.1-1.6-0.3-2.2-1c-0.5-0.5-1.1-0.3-1.7-0.3
		c-0.8,0-1.5-0.1-1.9-0.9c-0.2-0.6-0.7-0.5-1.2-0.5c-0.9,0-1.8-0.1-2.4-0.7c-0.1-0.1-0.2-0.2-0.3-0.2c-1.7,0.3-3.1-0.9-4.8-0.8
		c-1.2,0-2.4-0.1-2.7-1.6c-0.1-0.5-0.5-0.6-0.9-0.5c-1.1,0-2.2,0-3.2,0c-1.1,0-2.1,0-3.1-0.8c-0.2-0.1-0.4-0.2-0.7-0.2
		c-1.9,0.1-3.8-0.5-5.7-0.2c-2.2,0.3-4.4-0.5-6.6-0.5c-0.4,0-0.6-0.2-0.7-0.5c0.1-2.3,0.8-4.6,1.1-6.9c0.4-3.3,0.6-6.6,0.8-10
		c0.2-2.9-0.1-5.7-0.3-8.6c-0.2-2.4-0.2-4.8-0.8-7.2c-0.3-1-0.3-2.1,0.2-3.2c0.3-0.1,0.6-0.1,0.9,0c1.2,0.9,2.4,1.5,3.9,1.8
		c0,0,0,0,0,0c0.6,0.6,1.3,1.2,2.2,1.1c0.1,0,0.1,0,0.2,0.1c0,0.2,0.1,0.4,0.3,0.5c2.1,1.2,4.1,2.4,6.2,3.5c0.5,0.3,0.8,0.9,1.5,0.7
		c0.1,0,0.1,0,0.2,0.1c0.1,0.1,0.1,0.4,0.2,0.4c1.5,1,3,2,4.6,3c0.4,0.2,0.7,0.8,1.3,0.6c0.1,0,0.1,0,0.1,0.1c0,0.4,0.2,0.6,0.5,0.7
		c1.1,0.8,2.3,1.6,3.4,2.4c0.5,0.3,0.7,1.1,1.5,0.8c0.1,0,0.1,0,0.1,0.1c0.7,1.2,1.9,1.9,3.1,2.4c0,0,0,0,0,0c0.2,0.8,0.8,1,1.4,1.2
		c0,0,0,0,0,0c0,0.5,0.3,0.7,0.6,1c4.3,3.6,8.3,7.5,12,11.7c0.3,0.4,0.6,0.9,1.3,0.8c0.1,0,0.1,0.1,0.1,0.2c0.8,1.6,1.9,2.9,3.3,3.9
		c0,0,0,0,0,0c-0.1,0.6,0,1,0.7,0.9l-0.1,0c0,0,0.1,0,0.1,0c-0.1,0.5,0.2,0.7,0.6,0.8c0,0,0,0,0,0c-0.1,1,0.8,1.4,1.2,2.1
		c0.9,1.2,1.5,2.6,2.8,3.4c0,0,0,0,0,0c0,0.3,0,0.6,0.2,0.9c1.8,2.5,3.5,5.1,4.9,7.8C297.4,165.2,298.8,167.3,299.5,169.7z"/>
	<path class="st8" d="M204.2,290.1c0.1-0.5,0.4-0.5,0.7-0.3c0.4,0.3,0.9,0.3,1.4,0.4c0.7,0.2,1.1,0.1,0.6-0.7
		c-0.2-0.4-0.1-0.5,0.3-0.5c0.4-0.1,0.8-0.2,1.2-0.3c0.5-0.2,0.8-0.4,0.6-1c-0.2-0.7-0.1-1.5-0.1-2.3c0-0.5,0.2-0.9,0.6-1.1
		c0.8-0.5,0.9-1.2,0.9-2c0-0.6,0-1.2,0.6-1.4c1-0.3,1.3-0.8,1.4-1.8c0.1-0.9,0.2-1.9,1.4-2.1c0.1,0,0.2-0.2,0.4-0.3
		c1.7-2,3.7-3.7,5.6-5.6c0.2-0.3,0.5-0.6,0.6-0.9c0.2-1.2,1.1-1.4,2-1.4c2.1-0.2,4.2-0.9,6.4-0.9c1.9,0,4.1-0.6,5.7,0.1
		c1.7,0.8,3.7,0.3,5.1,1.6c0.1,0.1,0.2,0.1,0.2,0.1c2-0.5,2.7,1.2,3.9,2.3c1.7,1.5,3.2,3.1,4.8,4.8c0.7,0.7,1.1,1.4,1,2.4
		c-0.1,0.7,0,1.2,0.9,1.5c0.9,0.3,0.8,1.2,0.8,1.9c0,0.8,0,1.5,0.7,2.2c0.6,0.6,0.2,1.5,0.3,2.2c0,0.6,0,1.1,0.7,1.4
		c0.5,0.2,0.5,0.6,0.5,1c0,0.4,0.2,0.7,0.6,0.8c0.4,0.1,0.7-0.1,0.9-0.5c0.3-0.6,0.6-0.9,1.2-0.2c0.3,0.3,1,0,1.4-0.2
		c1.5-0.6,2.9-1.1,4.4-1.7c0.2-0.1,0.6,0,0.8,0c-1.4,1.1-3.1,1.4-4.7,1.9c-5.6,1.9-11.4,3.1-17.2,3.8c-6.3,0.7-12.6,0.7-18.9,0.2
		c-5.5-0.4-10.9-1.4-16.2-2.9C205,290.4,204.6,290.2,204.2,290.1z"/>
	<path class="st9" d="M193.2,175.9c-0.8,0.8-2.1,0.8-2.7,2c-0.1,0.3-1.2,0.3-1.8,0.4c-0.6,0-0.9,0.2-1.1,0.8
		c-0.4,1.2-1.2,1.8-2.6,1.6c-0.7-0.1-1.4,0-1.7,0.7c-0.3,0.6-0.7,0.4-1.2,0.3c-1.3-0.3-1.8,0-2.1,1.3c-0.1,0.7-0.5,1-1.2,1
		c-0.4,0-0.9,0-1.3,0c-1.2,0.1-1.5,0.5-1,1.7c0.1,0.3-0.5,2.5-0.8,2.7c-0.5,0.4-2.2,0.2-2.6-0.4c-0.7-0.8-1.2-0.5-1.6,0.2
		c-0.3,0.7-0.7,1.1-1.5,1.1c-0.5,0-0.8,0.4-1.2,0.8c-1,1.1-2,2.5-3.3,3.3c-2.1,1.3-2.7,3.8-5.1,4.7c-0.8,0.3-1.3,1.3-1.9,2.1
		c-1,1.1-2.3,1.8-3.1,3.1c-0.2,0.3-0.6,0.5-1,0.6c-0.9,0.1-1.3,0.7-1.1,1.4c0.3,1.4-0.4,1.3-1.3,1c-0.1-0.9,0.6-1.7,0.1-2.6
		c0-0.2,0-0.3,0.1-0.5c0.3-0.1,0.5-0.4,0.5-0.7c0.5-3.4,1.8-6.6,3.1-9.7c2.3-5.9,5.5-11.4,9.2-16.5c0.3-0.4,0.7-0.8,0.6-1.4
		c0,0,0,0,0,0c1.2-0.8,1.9-1.8,2.4-3.1c0.1-0.1,0.2-0.2,0.3-0.3c0.9-0.5,1.6-1.1,1.9-2.2c0,0,0,0,0,0c0.3,0,0.5-0.2,0.4-0.5
		c0,0,0,0,0,0c0.5,0,0.8-0.2,0.7-0.7c0,0,0,0,0,0c1.8-1.5,3.5-3.1,5.1-4.9c0,0,0-0.1,0-0.1c0,0,0,0,0,0c1.6-0.7,2.8-2,4.1-3.1
		c0,0,0-0.2,0-0.2c0,0,0,0,0,0c0.9-0.2,1.5-0.6,1.9-1.4c0.1-0.1,0.3-0.2,0.4-0.3c0.4,0.1,0.7-0.1,1.1-0.4c1.1-0.9,2.4-1.6,3.6-2.2
		c0.6-0.3,1.6-0.6,1.8,0.3c0.2,1.1,0.6,2.2,0.6,3.3c0.1,4,1.1,7.8,1.9,11.6C192.1,172.5,193,174.1,193.2,175.9z"/>
	<path class="st10" d="M236.7,110.1c-0.5,1-0.4,2.2-0.2,3.2c0.6,2.4,0.6,4.8,0.8,7.2c0.2,2.8,0.5,5.7,0.3,8.6
		c-0.2,3.3-0.3,6.7-0.8,10c-0.3,2.3-1,4.5-1.1,6.9c-0.5,0.1-0.6,0.5-0.7,0.9c-0.9,4.2-2.6,8.1-4.5,11.9c-1.3,2.5-3,4.7-4.4,7.2
		c-0.9,1.1-1.8,2.1-2.8,3.1c-0.4,0.4-0.6,1-1.3,0.9c1-1.7,2.5-3,3.7-4.5c3-4,5.3-8.3,7.1-12.9c1.4-3.7,2.5-7.5,3.1-11.4
		c1.1-6.4,1.3-12.9,1-19.3c-0.2-3.4-0.8-6.9-1.1-10.3C235.7,110.9,235.7,110.1,236.7,110.1z"/>
	<path class="st10" d="M193.2,175.9c-0.2-1.8-1.1-3.4-1.5-5.2c-0.8-3.8-1.8-7.6-1.9-11.6c0-1.1-0.4-2.2-0.6-3.3
		c-0.1-1-1.1-0.7-1.8-0.3c-1.3,0.6-2.5,1.3-3.6,2.2c-0.3,0.3-0.6,0.5-1.1,0.4c1.4-1.4,3-2.4,4.7-3.1c1.4-0.6,2.3,0,2.4,1.4
		c0.3,2.1,0.4,4.3,0.7,6.4c1.1,6.9,2.6,13.7,6.5,19.7c1,1.5,0.9,1.6,2.6,0.9c6.2-2.2,11.9-5.2,17.1-9.3c1.4-1.1,2.8-2.3,4.1-3.6
		c0.3-0.3,0.5-0.6,0.9-0.7c0.1,0.3-0.1,0.5-0.3,0.7c-2.8,2.9-6,5.3-9.4,7.5c-2.8,1.8-5.8,3.1-8.8,4.6c-1.5,0.8-3.3,1.2-4.9,1.8
		c-0.5,0.2-0.8-0.2-1.1-0.5c-1.5-1.9-2.5-4.1-3.5-6.3C193.7,177.1,193.5,176.5,193.2,175.9z"/>
	<path class="st10" d="M299.5,169.7c-0.7-2.4-2.2-4.5-3.3-6.6c-1.5-2.7-3.1-5.3-4.9-7.8c-0.2-0.3-0.2-0.6-0.2-0.9
		c1.8,1.8,2.9,4.1,4.3,6.3c3.3,5.3,6,10.9,8.2,16.7c1.9,5,3.5,10.1,4.7,15.4c0,0.2-0.1,0.4-0.1,0.6c-0.8-1-0.9-2.3-1.1-3.4
		c-0.5-2.3-1.2-4.5-1.9-6.7c-0.9-2.8-1.9-5.6-3-8.3C301.3,173,300.7,171.2,299.5,169.7z"/>
	<path class="st10" d="M161.1,256.1c1.4,2.4,3.1,4.7,4.3,7.2c-0.8-0.3-1-1.1-1.4-1.7c-4.4-6.4-7.6-13.4-9.9-20.7
		c-0.8-2.6-1.3-5.2-2-7.8c-0.1-0.3-0.1-0.6,0.1-0.9c0.8,0.8,0.5,2,0.8,2.9c0,0.3,0.1,0.5,0.4,0.5c-0.1,1.8,0.8,3.3,1,5
		c0,0.3,0.1,0.5,0.4,0.5c0.1,0.5,0.2,0.9,0.3,1.4c1.3,4,2.9,8,5,11.7c0.1,0.2,0.2,0.5,0.5,0.6c0,0.4,0.1,0.8,0.5,1
		C161,255.8,161,255.9,161.1,256.1z"/>
	<path class="st10" d="M165.6,175c0.1,0.6-0.3,1-0.6,1.4c-3.8,5.1-6.9,10.6-9.2,16.5c-1.2,3.1-2.6,6.3-3.1,9.7
		c-0.1,0.4-0.2,0.6-0.5,0.7c0-1.4,0.5-2.8,0.9-4.1c2-6.6,4.9-12.8,8.6-18.7C162.8,178.6,164,176.6,165.6,175z"/>
	<path class="st10" d="M152,203.8c0.4,0.9-0.2,1.7-0.1,2.6c-0.7,2.3-0.8,4.8-0.9,7.2c-0.2,3-0.1,6,0.2,8.9c0.3,2.5,0.3,5,0.9,7.5
		c0.1,0.4,0.2,0.9-0.1,1.4c-0.7-0.8-0.5-1.9-0.7-2.8c-1-6.9-1.2-13.8-0.3-20.6C151.2,206.5,151.2,205,152,203.8z"/>
	<path class="st10" d="M304.1,247c-0.2-1.1,0.5-2,0.9-2.9c0.6-1.6,1.2-3.2,1.7-4.8c0.9-2.7,1.6-5.4,2.1-8.1c0.2-1,0.2-2.1,0.6-3.1
		c0.1,0,0.2,0,0.3,0c0.3,1.2-0.1,2.3-0.4,3.4c-1.2,5.3-2.6,10.5-4.8,15.4C304.4,246.9,304.2,246.9,304.1,247z"/>
	<path class="st10" d="M282.2,143c-0.6,0.1-0.9-0.4-1.3-0.8c-3.7-4.2-7.7-8.1-12-11.7c-0.3-0.3-0.6-0.5-0.6-1c1.8,1,3.2,2.6,4.7,4
		c3.1,2.8,5.9,5.8,8.7,8.8C282,142.5,282.1,142.8,282.2,143z"/>
	<path class="st10" d="M310.4,210.7c-0.6-0.8-0.5-1.8-0.6-2.8c0-0.5,0-1,0-1.5c0.2-1.3-0.5-2.5-0.3-3.8c0.1-0.3-0.1-0.5-0.4-0.5
		c0-1.6-0.2-3.2-0.5-4.8c-0.3-1.2-0.5-2.4-0.4-3.6c0.7,0.4,0.4,1.2,0.5,1.7c1,4.5,1.6,9,1.8,13.6
		C310.5,209.6,310.6,210.2,310.4,210.7z"/>
	<path class="st10" d="M170.7,269.8c0.8,0,1.1,0.7,1.6,1.1c1.9,1.7,3.6,3.6,5.6,5.1c0.2,0.1,0.2,0.3,0.2,0.5
		c-2.2-1.2-3.8-3.1-5.6-4.8C171.8,271.1,171.2,270.4,170.7,269.8z"/>
	<path class="st10" d="M187.2,282.3c0.3,0.7,1,0.8,1.5,1.2c1.3,0.8,2.8,1.3,4,2.3c-2.3-0.6-4.2-2-6.2-3.1c-1-0.6-2.2-1-3-2
		c0.8-0.3,1.1,0.9,1.9,0.7c0.2,0.4,0.4,0.8,1,0.7C186.6,282.3,186.9,282.2,187.2,282.3z"/>
	<path class="st10" d="M251.9,117.8c-0.7,0.2-1.1-0.4-1.5-0.7c-2.1-1.1-4.1-2.3-6.2-3.5c-0.2-0.1-0.3-0.3-0.3-0.5
		C246.7,114.4,249.4,115.8,251.9,117.8z"/>
	<path class="st10" d="M309.8,223.9c0.1-1.1,0-2.3,0.6-3.4c0.2,2.4,0.1,4.7-0.7,7c0-0.1-0.1-0.2-0.1-0.3
		C309.6,226.2,309.7,225,309.8,223.9z"/>
	<path class="st10" d="M310.5,218.6c-0.3-2.5-0.3-4.9,0-7.4c0.3,0.1,0.3,0.5,0.3,0.7c0,2,0,4,0,5.9
		C310.7,218.2,310.8,218.5,310.5,218.6z"/>
	<path class="st10" d="M176.4,163.2c0,0,0,0.1,0,0.1c-1.5,1.8-3.2,3.4-5.1,4.9c0.6-1.5,1.9-2.4,3.1-3.4
		C175,164.2,175.5,163.5,176.4,163.2z"/>
	<path class="st10" d="M258.1,121.8c-0.6,0.2-0.9-0.4-1.3-0.6c-1.6-0.9-3.1-2-4.6-3c-0.1-0.1-0.1-0.3-0.2-0.4
		C254.2,118.9,256.3,120.2,258.1,121.8z"/>
	<path class="st10" d="M291.1,154.3c-1.3-0.8-2-2.2-2.8-3.4c-0.5-0.6-1.3-1.1-1.2-2.1C288.6,150.5,290,152.3,291.1,154.3z"/>
	<path class="st10" d="M263.6,125.9c-0.8,0.2-1-0.5-1.5-0.8c-1.2-0.8-2.3-1.6-3.4-2.4c-0.3-0.2-0.5-0.4-0.5-0.7
		C260.2,123,262,124.3,263.6,125.9z"/>
	<path class="st10" d="M301.2,252.9c0-0.6,0.1-1.1,0.4-1.6c0.7-1.1,1.3-2.3,1.8-3.4c0.1-0.3,0.2-0.7,0.7-0.7
		C303.4,249.2,302.5,251.2,301.2,252.9z"/>
	<path class="st10" d="M297.6,258.9c0.3-1.2,1.2-2,1.7-3.1c0.4-0.7,0.4-1.7,1.4-1.9C299.9,255.7,299,257.5,297.6,258.9z"/>
	<path class="st10" d="M178.6,277c1.3,0.3,2.1,1.3,3.1,2.1c0.7,0.5,1.6,0.6,1.9,1.6C181.7,279.7,180,278.5,178.6,277z"/>
	<path class="st10" d="M180.5,159.8c0,0.1,0,0.2,0,0.2c-1.3,1.2-2.4,2.4-4.1,3.1C177.6,161.8,178.8,160.6,180.5,159.8z"/>
	<path class="st10" d="M285.6,147.1c-1.5-1-2.6-2.3-3.3-3.9C283.7,144.3,284.7,145.6,285.6,147.1z"/>
	<path class="st10" d="M295,262.6c0.6-1.4,1.5-2.6,2.6-3.6C297,260.4,296.1,261.6,295,262.6z"/>
	<path class="st10" d="M241.4,111.8c-1.4-0.3-2.7-1-3.9-1.8C239.1,110.2,240.3,111,241.4,111.8z"/>
	<path class="st10" d="M168,171.9c-0.5,1.3-1.2,2.3-2.4,3.1C166.2,173.7,166.9,172.7,168,171.9z"/>
	<path class="st10" d="M266.9,128.4c-1.2-0.6-2.4-1.2-3.1-2.4C265,126.6,266,127.3,266.9,128.4z"/>
	<path class="st10" d="M166.8,265.2c1,0.6,1.7,1.5,2.1,2.6C168,267.2,167.3,266.2,166.8,265.2z"/>
	<path class="st10" d="M170.2,169.4c-0.2,1.1-0.9,1.7-1.9,2.2C168.6,170.7,169.3,170,170.2,169.4z"/>
	<path class="st10" d="M293.1,265c0.3-1,0.9-1.7,1.8-2.2C294.5,263.7,294,264.5,293.1,265z"/>
	<path class="st2" d="M277,279.4c0.7-0.7,1.4-1.3,2.4-1.4c-0.4,0.7-1.1,1.2-1.9,1.4C277.3,279.4,277.1,279.4,277,279.4z"/>
	<path class="st2" d="M280.4,277.3c0.4-0.8,0.9-1.4,1.9-1.5C281.8,276.6,281.2,277,280.4,277.3z"/>
	<path class="st10" d="M243.7,113c-1,0-1.6-0.5-2.2-1.1C242.3,112,243,112.4,243.7,113z"/>
	<path class="st10" d="M182.4,158.4c-0.4,0.8-1.1,1.3-1.9,1.4C180.9,159,181.6,158.7,182.4,158.4z"/>
	<path class="st8" d="M267.4,285.4c0.6-0.7,1.3-1.1,2.2-1.2C269,284.9,268.2,285.2,267.4,285.4z"/>
	<path class="st10" d="M169,267.8c0.7,0.1,1,0.9,1.6,1.2c0,0.2,0,0.4-0.1,0.6C169.9,269.1,169.2,268.7,169,267.8z"/>
	<path class="st10" d="M198.3,288.2c0.9,0,1.7,0.2,2.4,0.8C199.7,289,199,288.6,198.3,288.2z"/>
	<path class="st10" d="M201,289c0.8-0.3,1.4,0.4,2,0.7C202.2,289.9,201.6,289.6,201,289z"/>
	<path class="st2" d="M282.3,275.8c0.2-0.8,0.6-1.2,1.4-1.2C283.4,275.2,282.9,275.5,282.3,275.8z"/>
	<path class="st8" d="M273.6,282c0.2-0.3,0.3-0.6,0.5-0.9c0.4-0.1,0.9-0.1,1.3-0.2C274.9,281.4,274.3,281.8,273.6,282z"/>
	<path class="st10" d="M291.8,265.9c0.6-0.1,0.6-1,1.2-0.9c-0.3,0.7-0.6,1.3-1.3,1.6c0-0.1,0-0.1,0-0.2
		C291.8,266.2,291.8,266.1,291.8,265.9z"/>
	<path class="st10" d="M268.3,129.6c-0.7-0.2-1.3-0.4-1.4-1.2C267.5,128.6,268,129,268.3,129.6z"/>
	<path class="st10" d="M165.4,263.3c0.8,0.2,1.1,0.8,1.1,1.5C166,264.4,165.6,263.9,165.4,263.3z"/>
	<path class="st8" d="M264.2,286.8c0.3-0.8,0.9-0.7,1.5-0.7C265.4,286.6,264.8,286.8,264.2,286.8z"/>
	<path class="st2" d="M285.4,273.1c0.1-0.7,0.5-0.9,1.1-1C286.3,272.7,285.9,273,285.4,273.1z"/>
	<path class="st2" d="M279.4,278c0-0.7,0.4-0.8,1-0.7C280.2,277.8,279.9,277.9,279.4,278z"/>
	<path class="st8" d="M265.9,286.1c0.2-0.7,0.8-0.6,1.3-0.7C266.9,285.9,266.5,286.1,265.9,286.1z"/>
	<path class="st10" d="M195.3,286.9c0.6-0.1,1.1,0,1.3,0.6C196.1,287.4,195.6,287.4,195.3,286.9z"/>
	<path class="st8" d="M262.6,287.5c0.2-0.7,0.8-0.6,1.3-0.7C263.6,287.4,263.1,287.5,262.6,287.5z"/>
	<path class="st10" d="M286.4,148c-0.7,0-0.8-0.4-0.7-0.9C286.1,147.2,286.3,147.6,286.4,148z"/>
	<path class="st10" d="M289,269.1c0.2,0,0.5,0,0.7,0c-0.3,0.3-0.4,0.9-1,0.9C288.8,269.6,288.9,269.3,289,269.1z"/>
	<path class="st8" d="M272.4,282.7c0.1-0.7,0.5-0.7,1-0.7C273.2,282.5,272.8,282.6,272.4,282.7z"/>
	<path class="st10" d="M290.4,268.3c0-0.5,0.2-0.9,0.7-0.9C291.1,267.8,290.8,268.1,290.4,268.3z"/>
	<path class="st10" d="M287,148.8c-0.5-0.1-0.7-0.3-0.6-0.8C286.8,148.1,287,148.4,287,148.8z"/>
	<path class="st2" d="M283.7,274.6c0-0.5,0.3-0.7,0.8-0.7C284.4,274.3,284.1,274.5,283.7,274.6z"/>
	<path class="st8" d="M276,280.5c0.1-0.5,0.3-0.7,0.8-0.6C276.7,280.2,276.4,280.5,276,280.5z"/>
	<path class="st10" d="M288,270.6c0.1-0.4,0.3-0.6,0.7-0.7C288.7,270.4,288.4,270.7,288,270.6z"/>
	<path class="st8" d="M271.2,283.4c0.1-0.5,0.4-0.7,0.8-0.6C271.9,283.2,271.6,283.4,271.2,283.4z"/>
	<path class="st10" d="M171.3,168.2c0,0.5-0.2,0.8-0.7,0.7C170.6,168.5,170.9,168.3,171.3,168.2z"/>
	<path class="st10" d="M300.8,253.7c-0.1-0.4-0.1-0.7,0.4-0.8C301.2,253.3,301.2,253.6,300.8,253.7z"/>
	<path class="st3" d="M309.5,227.3c0,0.1,0.1,0.2,0.1,0.3c0,0.1,0,0.3,0,0.4c-0.1,0-0.2,0-0.3,0C309,227.7,309,227.4,309.5,227.3z"
		/>
	<path class="st10" d="M289.7,268.9c-0.1-0.5,0.2-0.6,0.6-0.6C290.3,268.6,290,268.8,289.7,268.9z"/>
	<path class="st10" d="M287.5,271.1c0-0.3,0.2-0.4,0.4-0.5C288,271,287.8,271.2,287.5,271.1z"/>
	<path class="st8" d="M277,279.4c0.2,0,0.4,0,0.5,0c-0.1,0.3-0.2,0.5-0.5,0.4C277,279.7,277,279.5,277,279.4z"/>
	<path class="st10" d="M178,276.5c0.3-0.1,0.5,0.1,0.5,0.4C178.3,277,178.1,276.8,178,276.5z"/>
	<path class="st10" d="M193.6,286.1c0.3-0.1,0.5,0,0.6,0.3C193.9,286.6,193.7,286.4,193.6,286.1z"/>
	<path class="st10" d="M197.3,287.7c0.3-0.3,0.4,0,0.5,0.2C197.6,288,197.4,288,197.3,287.7z"/>
	<path class="st10" d="M170.6,168.9c0.1,0.3-0.1,0.5-0.4,0.5C170.2,169.1,170.3,169,170.6,168.9z"/>
	<path class="st8" d="M270.2,283.9c0-0.4,0.3-0.5,0.6-0.4C270.7,283.8,270.6,283.9,270.2,283.9z"/>
	<path class="st4" d="M173.3,268c-0.2,0.4-0.2,1.1-0.8,1.2c-0.4,0-0.8-0.6-0.6-1c0.3-0.4-0.3-1.3,0.6-1.3
		C173.2,266.9,173.3,267.3,173.3,268z"/>
	<path class="st2" d="M186.5,282c-0.6,0.1-0.8-0.3-1-0.7C185.9,281.4,186.7,281,186.5,282z"/>
	<path class="st6" d="M152.9,229.4c0-0.9,0-1.4,0-2c0-0.2,0-0.5,0.3-0.5c0.3,0,0.4,0.2,0.4,0.5C153.6,228,153.6,228.6,152.9,229.4z"
		/>
	<path class="st3" d="M153.3,235.5c-0.3,0-0.5-0.2-0.4-0.5C153.2,235,153.4,235.2,153.3,235.5z"/>
	<path class="st3" d="M154.8,241c-0.3,0-0.5-0.2-0.4-0.5C154.7,240.5,154.8,240.7,154.8,241z"/>
	<path class="st4" d="M161,255.6c-0.4-0.2-0.5-0.6-0.5-1C161.1,254.7,161.5,254.9,161,255.6z"/>
	<path class="st2" d="M291.8,265.9c0,0.2,0,0.3-0.1,0.5c-0.2,0-0.3-0.1-0.3-0.3C291.5,266,291.7,266,291.8,265.9z"/>
	<path class="st3" d="M309.1,202.1c0.3,0,0.5,0.2,0.4,0.5C309.2,202.5,309.1,202.4,309.1,202.1z"/>
</g>
</svg>
